<svg xmlns="http://www.w3.org/2000/svg" xmlns:xlink="http://www.w3.org/1999/xlink" contentStyleType="text/css" data-diagram-type="SEQUENCE" height="626px" preserveAspectRatio="none" style="width:374px;height:626px;background:#FFFFFF;" version="1.1" viewBox="0 0 374 626" width="374px" zoomAndPan="magnify"><?plantuml 1.2026.3beta4?><defs/><g><g class="title" data-source-line="1"><text fill="#000000" font-family="sans-serif" font-size="14" font-weight="700" lengthAdjust="spacing" textLength="274.1143" x="46.8787" y="27.9951">SSD - UC02 Se borgere p&#229; afdeling</text></g><g class="participant-lifeline" data-entity-uid="part1" data-qualified-name="Personale" id="part1-lifeline"><g><title>Personale</title><rect fill="#000000" fill-opacity="0.00000" height="425.5938" width="8" x="38.313" y="118.5938"/><line style="stroke:#181818;stroke-width:0.5;stroke-dasharray:5,5;" x1="42" x2="42" y1="118.5938" y2="544.1875"/></g></g><g class="participant-lifeline" data-entity-uid="part2" data-qualified-name="System" id="part2-lifeline"><g><title>VIGOR System</title><rect fill="#000000" fill-opacity="0.00000" height="425.5938" width="8" x="273.582" y="118.5938"/><line style="stroke:#181818;stroke-width:0.5;stroke-dasharray:5,5;" x1="276.603" x2="276.603" y1="118.5938" y2="544.1875"/></g></g><g class="participant participant-head" data-entity-uid="part1" data-qualified-name="Personale" id="part1-head"><text fill="#000000" font-family="sans-serif" font-size="14" lengthAdjust="spacing" textLength="68.626" x="5" y="115.292">Personale</text><ellipse cx="42.313" cy="50.7969" fill="#E2E2F0" rx="8" ry="8" style="stroke:#181818;stroke-width:0.5;"/><path d="M42.313,58.7969 L42.313,85.7969 M29.313,66.7969 L55.313,66.7969 M42.313,85.7969 L29.313,100.7969 M42.313,85.7969 L55.313,100.7969" fill="none" style="stroke:#181818;stroke-width:0.5;"/></g><g class="participant participant-tail" data-entity-uid="part1" data-qualified-name="Personale" id="part1-tail"><text fill="#000000" font-family="sans-serif" font-size="14" lengthAdjust="spacing" textLength="68.626" x="5" y="556.1826">Personale</text><ellipse cx="42.313" cy="567.9844" fill="#E2E2F0" rx="8" ry="8" style="stroke:#181818;stroke-width:0.5;"/><path d="M42.313,575.9844 L42.313,602.9844 M29.313,583.9844 L55.313,583.9844 M42.313,602.9844 L29.313,617.9844 M42.313,602.9844 L55.313,617.9844" fill="none" style="stroke:#181818;stroke-width:0.5;"/></g><g class="participant participant-head" data-entity-uid="part2" data-qualified-name="System" id="part2-head"><rect fill="#E2E2F0" height="30.2969" rx="2.5" ry="2.5" style="stroke:#181818;stroke-width:0.5;" width="115.958" x="219.603" y="87.2969"/><text fill="#000000" font-family="sans-serif" font-size="14" lengthAdjust="spacing" textLength="101.958" x="226.603" y="107.292">VIGOR System</text></g><g class="participant participant-tail" data-entity-uid="part2" data-qualified-name="System" id="part2-tail"><rect fill="#E2E2F0" height="30.2969" rx="2.5" ry="2.5" style="stroke:#181818;stroke-width:0.5;" width="115.958" x="219.603" y="543.1875"/><text fill="#000000" font-family="sans-serif" font-size="14" lengthAdjust="spacing" textLength="101.958" x="226.603" y="563.1826">VIGOR System</text></g><rect fill="#EEEEEE" height="3" style="stroke:#EEEEEE;stroke-width:1;" width="368.8716" x="0" y="149.1602"/><line style="stroke:#000000;stroke-width:1;" x1="0" x2="368.8716" y1="149.1602" y2="149.1602"/><line style="stroke:#000000;stroke-width:1;" x1="0" x2="368.8716" y1="152.1602" y2="152.1602"/><rect fill="#EEEEEE" height="23.1328" style="stroke:#000000;stroke-width:2;" width="185.0313" x="91.9202" y="138.5938"/><text fill="#000000" font-family="sans-serif" font-size="13" font-weight="700" lengthAdjust="spacing" textLength="166.5054" x="97.9202" y="154.6606">Main Success Scenario</text><g class="message" data-entity-1="part1" data-entity-2="part2" id="msg1"><polygon fill="#181818" points="265.582,188.8594,275.582,192.8594,265.582,196.8594,269.582,192.8594" style="stroke:#181818;stroke-width:1;"/><line style="stroke:#181818;stroke-width:1;" x1="42.313" x2="271.582" y1="192.8594" y2="192.8594"/><text fill="#000000" font-family="sans-serif" font-size="13" lengthAdjust="spacing" textLength="165.5088" x="49.313" y="187.7935">requestCitizenOverview()</text></g><g class="message" data-entity-1="part2" data-entity-2="part1" id="msg2"><polygon fill="#181818" points="53.313,217.9922,43.313,221.9922,53.313,225.9922,49.313,221.9922" style="stroke:#181818;stroke-width:1;"/><line style="stroke:#181818;stroke-width:1;stroke-dasharray:2,2;" x1="47.313" x2="276.582" y1="221.9922" y2="221.9922"/><text fill="#000000" font-family="sans-serif" font-size="13" lengthAdjust="spacing" textLength="160.2275" x="59.313" y="216.9263">showCitizenList(citizens)</text></g><rect fill="#EEEEEE" height="3" style="stroke:#EEEEEE;stroke-width:1;" width="368.8716" x="0" y="250.5586"/><line style="stroke:#000000;stroke-width:1;" x1="0" x2="368.8716" y1="250.5586" y2="250.5586"/><line style="stroke:#000000;stroke-width:1;" x1="0" x2="368.8716" y1="253.5586" y2="253.5586"/><rect fill="#EEEEEE" height="23.1328" style="stroke:#000000;stroke-width:2;" width="344.8716" x="12" y="239.9922"/><text fill="#000000" font-family="sans-serif" font-size="13" font-weight="700" lengthAdjust="spacing" textLength="326.3457" x="18" y="256.0591">Alternative Flow - Ingen borgere p&#229; afdeling</text><g class="message" data-entity-1="part1" data-entity-2="part2" id="msg3"><polygon fill="#181818" points="265.582,290.2578,275.582,294.2578,265.582,298.2578,269.582,294.2578" style="stroke:#181818;stroke-width:1;"/><line style="stroke:#181818;stroke-width:1;" x1="42.313" x2="271.582" y1="294.2578" y2="294.2578"/><text fill="#000000" font-family="sans-serif" font-size="13" lengthAdjust="spacing" textLength="165.5088" x="49.313" y="289.1919">requestCitizenOverview()</text></g><g class="message" data-entity-1="part2" data-entity-2="part1" id="msg4"><polygon fill="#181818" points="53.313,319.3906,43.313,323.3906,53.313,327.3906,49.313,323.3906" style="stroke:#181818;stroke-width:1;"/><line style="stroke:#181818;stroke-width:1;stroke-dasharray:2,2;" x1="47.313" x2="276.582" y1="323.3906" y2="323.3906"/><text fill="#000000" font-family="sans-serif" font-size="13" lengthAdjust="spacing" textLength="211.269" x="59.313" y="318.3247">showEmptyCitizenList(message)</text></g><rect fill="#EEEEEE" height="3" style="stroke:#EEEEEE;stroke-width:1;" width="368.8716" x="0" y="351.957"/><line style="stroke:#000000;stroke-width:1;" x1="0" x2="368.8716" y1="351.957" y2="351.957"/><line style="stroke:#000000;stroke-width:1;" x1="0" x2="368.8716" y1="354.957" y2="354.957"/><rect fill="#EEEEEE" height="23.1328" style="stroke:#000000;stroke-width:2;" width="293.8872" x="37.4922" y="341.3906"/><text fill="#000000" font-family="sans-serif" font-size="13" font-weight="700" lengthAdjust="spacing" textLength="275.3613" x="43.4922" y="357.4575">Alternative Flow - Manglende adgang</text><g class="message" data-entity-1="part1" data-entity-2="part2" id="msg5"><polygon fill="#181818" points="265.582,391.6563,275.582,395.6563,265.582,399.6563,269.582,395.6563" style="stroke:#181818;stroke-width:1;"/><line style="stroke:#181818;stroke-width:1;" x1="42.313" x2="271.582" y1="395.6563" y2="395.6563"/><text fill="#000000" font-family="sans-serif" font-size="13" lengthAdjust="spacing" textLength="165.5088" x="49.313" y="390.5903">requestCitizenOverview()</text></g><g class="message" data-entity-1="part2" data-entity-2="part1" id="msg6"><polygon fill="#181818" points="53.313,420.7891,43.313,424.7891,53.313,428.7891,49.313,424.7891" style="stroke:#181818;stroke-width:1;"/><line style="stroke:#181818;stroke-width:1;stroke-dasharray:2,2;" x1="47.313" x2="276.582" y1="424.7891" y2="424.7891"/><text fill="#000000" font-family="sans-serif" font-size="13" lengthAdjust="spacing" textLength="193.0068" x="59.313" y="419.7231">showAccessDenied(message)</text></g><rect fill="#EEEEEE" height="3" style="stroke:#EEEEEE;stroke-width:1;" width="368.8716" x="0" y="453.3555"/><line style="stroke:#000000;stroke-width:1;" x1="0" x2="368.8716" y1="453.3555" y2="453.3555"/><line style="stroke:#000000;stroke-width:1;" x1="0" x2="368.8716" y1="456.3555" y2="456.3555"/><rect fill="#EEEEEE" height="23.1328" style="stroke:#000000;stroke-width:2;" width="231.2612" x="68.8052" y="442.7891"/><text fill="#000000" font-family="sans-serif" font-size="13" font-weight="700" lengthAdjust="spacing" textLength="212.7354" x="74.8052" y="458.856">Alternative Flow - Systemfejl</text><g class="message" data-entity-1="part1" data-entity-2="part2" id="msg7"><polygon fill="#181818" points="265.582,493.0547,275.582,497.0547,265.582,501.0547,269.582,497.0547" style="stroke:#181818;stroke-width:1;"/><line style="stroke:#181818;stroke-width:1;" x1="42.313" x2="271.582" y1="497.0547" y2="497.0547"/><text fill="#000000" font-family="sans-serif" font-size="13" lengthAdjust="spacing" textLength="165.5088" x="49.313" y="491.9888">requestCitizenOverview()</text></g><g class="message" data-entity-1="part2" data-entity-2="part1" id="msg8"><polygon fill="#181818" points="53.313,522.1875,43.313,526.1875,53.313,530.1875,49.313,526.1875" style="stroke:#181818;stroke-width:1;"/><line style="stroke:#181818;stroke-width:1;stroke-dasharray:2,2;" x1="47.313" x2="276.582" y1="526.1875" y2="526.1875"/><text fill="#000000" font-family="sans-serif" font-size="13" lengthAdjust="spacing" textLength="164.9058" x="59.313" y="521.1216">showError(errorMessage)</text></g><?plantuml-src hP71IiD048Rl-nH3J-aX81uB4KghKZ1K37eVDt_NaSrktDqcrFVnINmnOnlKW-8bbs4O_fdv_faaoOAgQaqvtQ_Epga2FVfW443j-nlnheOLPvHYdNoWMuJe7LkebaCIBIsxHBE7pVNsZgf3J6Xcn75CbIeAAbaSLNkj4OUwXkCWdef2gQzXb5-C7RIWW9SzObf9abUuROVG2VfihaP5FeY_EnSKdtm_YcyafaoVyZW_Rb_QXE0uIGUwihuVV6wSWVlLvSHKbqsR3Z_Hck44RF0dMSdEMBWQnBNXoNcMnn-iuGJrloodEJiyswcl4e8F6JvZEJ9y0000?></g></svg>