<?plantuml 1.2026.2beta3?><svg xmlns="http://www.w3.org/2000/svg" xmlns:xlink="http://www.w3.org/1999/xlink" contentStyleType="text/css" data-diagram-type="SEQUENCE" height="1733px" preserveAspectRatio="none" style="width:1689px;height:1733px;background:#FFFFFF;" version="1.1" viewBox="0 0 1689 1733" width="1689px" zoomAndPan="magnify"><title>UC01 - Sekvensdiagram (Design-level) - Log ind (rollebaseret)</title><defs/><g><text fill="#000000" font-family="sans-serif" font-size="14" font-weight="bold" lengthAdjust="spacing" textLength="490.6084" x="595.2861" y="27.9951">UC01 - Sekvensdiagram (Design-level) - Log ind (rollebaseret)</text><g class="participant-lifeline" data-entity-uid="part1" data-qualified-name="User" id="part1-lifeline"><g><title>Personale</title><rect fill="#000000" fill-opacity="0.00000" height="1533.7734" width="8" x="38.313" y="118.5938"/><line style="stroke:#181818;stroke-width:0.5;stroke-dasharray:5,5;" x1="42" x2="42" y1="118.5938" y2="1652.3672"/></g></g><g class="participant-lifeline" data-entity-uid="part2" data-qualified-name="View" id="part2-lifeline"><g><title>LoginView .Blazor Component.</title><rect fill="#000000" fill-opacity="0.00000" height="1533.7734" width="8" x="220.395" y="118.5938"/><line style="stroke:#181818;stroke-width:0.5;stroke-dasharray:5,5;" x1="224.1992" x2="224.1992" y1="118.5938" y2="1652.3672"/></g></g><g class="participant-lifeline" data-entity-uid="part3" data-qualified-name="Controller" id="part3-lifeline"><g><title>AuthController</title><rect fill="#000000" fill-opacity="0.00000" height="1533.7734" width="8" x="410.7798" y="118.5938"/><line style="stroke:#181818;stroke-width:0.5;stroke-dasharray:5,5;" x1="413.7871" x2="413.7871" y1="118.5938" y2="1652.3672"/></g></g><g class="participant-lifeline" data-entity-uid="part4" data-qualified-name="AuthService" id="part4-lifeline"><g><title>AuthService</title><rect fill="#000000" fill-opacity="0.00000" height="1533.7734" width="8" x="865.1255" y="118.5938"/><line style="stroke:#181818;stroke-width:0.5;stroke-dasharray:5,5;" x1="868.8486" x2="868.8486" y1="118.5938" y2="1652.3672"/></g></g><g class="participant-lifeline" data-entity-uid="part5" data-qualified-name="Resolver" id="part5-lifeline"><g><title>StartPageResolver</title><rect fill="#000000" fill-opacity="0.00000" height="1533.7734" width="8" x="988.1353" y="118.5938"/><line style="stroke:#181818;stroke-width:0.5;stroke-dasharray:5,5;" x1="991.4023" x2="991.4023" y1="118.5938" y2="1652.3672"/></g></g><g class="participant-lifeline" data-entity-uid="part6" data-qualified-name="Nav" id="part6-lifeline"><g><title>NavigationService</title><rect fill="#000000" fill-opacity="0.00000" height="1533.7734" width="8" x="1132.4937" y="118.5938"/><line style="stroke:#181818;stroke-width:0.5;stroke-dasharray:5,5;" x1="1135.8682" x2="1135.8682" y1="118.5938" y2="1652.3672"/></g></g><g class="participant-lifeline" data-entity-uid="part7" data-qualified-name="IdentityDb" id="part7-lifeline"><g><title>Identity Store</title><rect fill="#000000" fill-opacity="0.00000" height="1533.7734" width="8" x="1259.8271" y="118.5938"/><line style="stroke:#181818;stroke-width:0.5;stroke-dasharray:5,5;" x1="1263.1191" x2="1263.1191" y1="118.5938" y2="1652.3672"/></g></g><g class="participant-lifeline" data-entity-uid="part8" data-qualified-name="SignInManager" id="part8-lifeline"><g><title>SignInManager.User.</title><rect fill="#000000" fill-opacity="0.00000" height="1533.7734" width="8" x="1413.3955" y="118.5938"/><line style="stroke:#181818;stroke-width:0.5;stroke-dasharray:5,5;" x1="1417.2578" x2="1417.2578" y1="118.5938" y2="1652.3672"/></g></g><g class="participant-lifeline" data-entity-uid="part9" data-qualified-name="UserManager" id="part9-lifeline"><g><title>UserManager.User.</title><rect fill="#000000" fill-opacity="0.00000" height="1533.7734" width="8" x="1591.8569" y="118.5938"/><line style="stroke:#181818;stroke-width:0.5;stroke-dasharray:5,5;" x1="1595.5332" x2="1595.5332" y1="118.5938" y2="1652.3672"/></g></g><g class="participant participant-head" data-entity-uid="part1" data-qualified-name="User" id="part1-head"><text fill="#000000" font-family="sans-serif" font-size="14" lengthAdjust="spacing" textLength="68.626" x="5" y="115.292">Personale</text><ellipse cx="42.313" cy="50.7969" fill="#E2E2F0" rx="8" ry="8" style="stroke:#181818;stroke-width:0.5;"/><path d="M42.313,58.7969 L42.313,85.7969 M29.313,66.7969 L55.313,66.7969 M42.313,85.7969 L29.313,100.7969 M42.313,85.7969 L55.313,100.7969" fill="none" style="stroke:#181818;stroke-width:0.5;"/></g><g class="participant participant-tail" data-entity-uid="part1" data-qualified-name="User" id="part1-tail"><text fill="#000000" font-family="sans-serif" font-size="14" lengthAdjust="spacing" textLength="68.626" x="5" y="1664.3623">Personale</text><ellipse cx="42.313" cy="1676.1641" fill="#E2E2F0" rx="8" ry="8" style="stroke:#181818;stroke-width:0.5;"/><path d="M42.313,1684.1641 L42.313,1711.1641 M29.313,1692.1641 L55.313,1692.1641 M42.313,1711.1641 L29.313,1726.1641 M42.313,1711.1641 L55.313,1726.1641" fill="none" style="stroke:#181818;stroke-width:0.5;"/></g><g class="participant participant-head" data-entity-uid="part2" data-qualified-name="View" id="part2-head"><text fill="#000000" font-family="sans-serif" font-size="14" lengthAdjust="spacing" textLength="216.3916" x="113.1992" y="115.292">LoginView (Blazor Component)</text><path d="M203.895,74.2969 L203.895,98.2969 M203.895,86.2969 L220.895,86.2969" fill="none" style="stroke:#181818;stroke-width:0.5;"/><ellipse cx="232.895" cy="86.2969" fill="#E2E2F0" rx="12" ry="12" style="stroke:#181818;stroke-width:0.5;"/></g><g class="participant participant-tail" data-entity-uid="part2" data-qualified-name="View" id="part2-tail"><text fill="#000000" font-family="sans-serif" font-size="14" lengthAdjust="spacing" textLength="216.3916" x="113.1992" y="1664.3623">LoginView (Blazor Component)</text><path d="M203.895,1671.6641 L203.895,1695.6641 M203.895,1683.6641 L220.895,1683.6641" fill="none" style="stroke:#181818;stroke-width:0.5;"/><ellipse cx="232.895" cy="1683.6641" fill="#E2E2F0" rx="12" ry="12" style="stroke:#181818;stroke-width:0.5;"/></g><g class="participant participant-head" data-entity-uid="part3" data-qualified-name="Controller" id="part3-head"><text fill="#000000" font-family="sans-serif" font-size="14" lengthAdjust="spacing" textLength="101.9854" x="360.7871" y="115.292">AuthController</text><ellipse cx="414.7798" cy="86.2969" fill="#E2E2F0" rx="12" ry="12" style="stroke:#181818;stroke-width:0.5;"/><polygon fill="#181818" points="410.7798,74.2969,416.7798,69.2969,414.7798,74.2969,416.7798,79.2969,410.7798,74.2969" style="stroke:#181818;stroke-width:1;"/></g><g class="participant participant-tail" data-entity-uid="part3" data-qualified-name="Controller" id="part3-tail"><text fill="#000000" font-family="sans-serif" font-size="14" lengthAdjust="spacing" textLength="101.9854" x="360.7871" y="1664.3623">AuthController</text><ellipse cx="414.7798" cy="1683.6641" fill="#E2E2F0" rx="12" ry="12" style="stroke:#181818;stroke-width:0.5;"/><polygon fill="#181818" points="410.7798,1671.6641,416.7798,1666.6641,414.7798,1671.6641,416.7798,1676.6641,410.7798,1671.6641" style="stroke:#181818;stroke-width:1;"/></g><g class="participant participant-head" data-entity-uid="part4" data-qualified-name="AuthService" id="part4-head"><text fill="#000000" font-family="sans-serif" font-size="14" lengthAdjust="spacing" textLength="84.5537" x="823.8486" y="115.292">AuthService</text><ellipse cx="869.1255" cy="86.2969" fill="#E2E2F0" rx="12" ry="12" style="stroke:#181818;stroke-width:0.5;"/><polygon fill="#181818" points="865.1255,74.2969,871.1255,69.2969,869.1255,74.2969,871.1255,79.2969,865.1255,74.2969" style="stroke:#181818;stroke-width:1;"/></g><g class="participant participant-tail" data-entity-uid="part4" data-qualified-name="AuthService" id="part4-tail"><text fill="#000000" font-family="sans-serif" font-size="14" lengthAdjust="spacing" textLength="84.5537" x="823.8486" y="1664.3623">AuthService</text><ellipse cx="869.1255" cy="1683.6641" fill="#E2E2F0" rx="12" ry="12" style="stroke:#181818;stroke-width:0.5;"/><polygon fill="#181818" points="865.1255,1671.6641,871.1255,1666.6641,869.1255,1671.6641,871.1255,1676.6641,865.1255,1671.6641" style="stroke:#181818;stroke-width:1;"/></g><g class="participant participant-head" data-entity-uid="part5" data-qualified-name="Resolver" id="part5-head"><text fill="#000000" font-family="sans-serif" font-size="14" lengthAdjust="spacing" textLength="129.4658" x="924.4023" y="115.292">StartPageResolver</text><ellipse cx="992.1353" cy="86.2969" fill="#E2E2F0" rx="12" ry="12" style="stroke:#181818;stroke-width:0.5;"/><polygon fill="#181818" points="988.1353,74.2969,994.1353,69.2969,992.1353,74.2969,994.1353,79.2969,988.1353,74.2969" style="stroke:#181818;stroke-width:1;"/></g><g class="participant participant-tail" data-entity-uid="part5" data-qualified-name="Resolver" id="part5-tail"><text fill="#000000" font-family="sans-serif" font-size="14" lengthAdjust="spacing" textLength="129.4658" x="924.4023" y="1664.3623">StartPageResolver</text><ellipse cx="992.1353" cy="1683.6641" fill="#E2E2F0" rx="12" ry="12" style="stroke:#181818;stroke-width:0.5;"/><polygon fill="#181818" points="988.1353,1671.6641,994.1353,1666.6641,992.1353,1671.6641,994.1353,1676.6641,988.1353,1671.6641" style="stroke:#181818;stroke-width:1;"/></g><g class="participant participant-head" data-entity-uid="part6" data-qualified-name="Nav" id="part6-head"><text fill="#000000" font-family="sans-serif" font-size="14" lengthAdjust="spacing" textLength="127.251" x="1069.8682" y="115.292">NavigationService</text><ellipse cx="1136.4937" cy="86.2969" fill="#E2E2F0" rx="12" ry="12" style="stroke:#181818;stroke-width:0.5;"/><polygon fill="#181818" points="1132.4937,74.2969,1138.4937,69.2969,1136.4937,74.2969,1138.4937,79.2969,1132.4937,74.2969" style="stroke:#181818;stroke-width:1;"/></g><g class="participant participant-tail" data-entity-uid="part6" data-qualified-name="Nav" id="part6-tail"><text fill="#000000" font-family="sans-serif" font-size="14" lengthAdjust="spacing" textLength="127.251" x="1069.8682" y="1664.3623">NavigationService</text><ellipse cx="1136.4937" cy="1683.6641" fill="#E2E2F0" rx="12" ry="12" style="stroke:#181818;stroke-width:0.5;"/><polygon fill="#181818" points="1132.4937,1671.6641,1138.4937,1666.6641,1136.4937,1671.6641,1138.4937,1676.6641,1132.4937,1671.6641" style="stroke:#181818;stroke-width:1;"/></g><g class="participant participant-head" data-entity-uid="part7" data-qualified-name="IdentityDb" id="part7-head"><text fill="#000000" font-family="sans-serif" font-size="14" lengthAdjust="spacing" textLength="95.416" x="1213.1191" y="115.292">Identity Store</text><path d="M1245.8271,66.2969 C1245.8271,56.2969 1263.8271,56.2969 1263.8271,56.2969 C1263.8271,56.2969 1281.8271,56.2969 1281.8271,66.2969 L1281.8271,92.2969 C1281.8271,102.2969 1263.8271,102.2969 1263.8271,102.2969 C1263.8271,102.2969 1245.8271,102.2969 1245.8271,92.2969 L1245.8271,66.2969" fill="#E2E2F0" style="stroke:#181818;stroke-width:0.5;"/><path d="M1245.8271,66.2969 C1245.8271,76.2969 1263.8271,76.2969 1263.8271,76.2969 C1263.8271,76.2969 1281.8271,76.2969 1281.8271,66.2969" fill="none" style="stroke:#181818;stroke-width:0.5;"/></g><g class="participant participant-tail" data-entity-uid="part7" data-qualified-name="IdentityDb" id="part7-tail"><text fill="#000000" font-family="sans-serif" font-size="14" lengthAdjust="spacing" textLength="95.416" x="1213.1191" y="1664.3623">Identity Store</text><path d="M1245.8271,1677.6641 C1245.8271,1667.6641 1263.8271,1667.6641 1263.8271,1667.6641 C1263.8271,1667.6641 1281.8271,1667.6641 1281.8271,1677.6641 L1281.8271,1703.6641 C1281.8271,1713.6641 1263.8271,1713.6641 1263.8271,1713.6641 C1263.8271,1713.6641 1245.8271,1713.6641 1245.8271,1703.6641 L1245.8271,1677.6641" fill="#E2E2F0" style="stroke:#181818;stroke-width:0.5;"/><path d="M1245.8271,1677.6641 C1245.8271,1687.6641 1263.8271,1687.6641 1263.8271,1687.6641 C1263.8271,1687.6641 1281.8271,1687.6641 1281.8271,1677.6641" fill="none" style="stroke:#181818;stroke-width:0.5;"/></g><g class="participant participant-head" data-entity-uid="part8" data-qualified-name="SignInManager" id="part8-head"><rect fill="#E2E2F0" height="30.2969" rx="2.5" ry="2.5" style="stroke:#181818;stroke-width:0.5;" width="174.2754" x="1330.2578" y="87.2969"/><text fill="#000000" font-family="sans-serif" font-size="14" lengthAdjust="spacing" textLength="160.2754" x="1337.2578" y="107.292">SignInManager&lt;User&gt;</text></g><g class="participant participant-tail" data-entity-uid="part8" data-qualified-name="SignInManager" id="part8-tail"><rect fill="#E2E2F0" height="30.2969" rx="2.5" ry="2.5" style="stroke:#181818;stroke-width:0.5;" width="174.2754" x="1330.2578" y="1651.3672"/><text fill="#000000" font-family="sans-serif" font-size="14" lengthAdjust="spacing" textLength="160.2754" x="1337.2578" y="1671.3623">SignInManager&lt;User&gt;</text></g><g class="participant participant-head" data-entity-uid="part9" data-qualified-name="UserManager" id="part9-head"><rect fill="#E2E2F0" height="30.2969" rx="2.5" ry="2.5" style="stroke:#181818;stroke-width:0.5;" width="162.6475" x="1514.5332" y="87.2969"/><text fill="#000000" font-family="sans-serif" font-size="14" lengthAdjust="spacing" textLength="148.6475" x="1521.5332" y="107.292">UserManager&lt;User&gt;</text></g><g class="participant participant-tail" data-entity-uid="part9" data-qualified-name="UserManager" id="part9-tail"><rect fill="#E2E2F0" height="30.2969" rx="2.5" ry="2.5" style="stroke:#181818;stroke-width:0.5;" width="162.6475" x="1514.5332" y="1651.3672"/><text fill="#000000" font-family="sans-serif" font-size="14" lengthAdjust="spacing" textLength="148.6475" x="1521.5332" y="1671.3623">UserManager&lt;User&gt;</text></g><rect fill="#EEEEEE" height="3" style="stroke:#EEEEEE;stroke-width:1;" width="1682.1807" x="0" y="149.1602"/><line style="stroke:#000000;stroke-width:1;" x1="0" x2="1682.1807" y1="149.1602" y2="149.1602"/><line style="stroke:#000000;stroke-width:1;" x1="0" x2="1682.1807" y1="152.1602" y2="152.1602"/><rect fill="#EEEEEE" height="23.1328" style="stroke:#000000;stroke-width:2;" width="185.0313" x="748.5747" y="138.5938"/><text fill="#000000" font-family="sans-serif" font-size="13" font-weight="bold" lengthAdjust="spacing" textLength="166.5054" x="754.5747" y="154.6606">Main Success Scenario</text><g class="message" data-entity-1="part1" data-entity-2="part2" id="msg1"><polygon fill="#181818" points="212.395,203.9922,222.395,207.9922,212.395,211.9922,216.395,207.9922" style="stroke:#181818;stroke-width:1;"/><line style="stroke:#181818;stroke-width:1;" x1="42.313" x2="218.395" y1="207.9922" y2="207.9922"/><text fill="#000000" font-family="sans-serif" font-size="13" lengthAdjust="spacing" textLength="158.082" x="49.313" y="187.7935">Indtast email+password</text><text fill="#000000" font-family="sans-serif" font-size="13" lengthAdjust="spacing" textLength="82.2402" x="49.313" y="202.9263">Klik 'Log ind'</text></g><g class="message" data-entity-1="part2" data-entity-2="part3" id="msg2"><polygon fill="#181818" points="402.7798,233.125,412.7798,237.125,402.7798,241.125,406.7798,237.125" style="stroke:#181818;stroke-width:1;"/><line style="stroke:#181818;stroke-width:1;" x1="224.395" x2="408.7798" y1="237.125" y2="237.125"/><text fill="#000000" font-family="sans-serif" font-size="13" lengthAdjust="spacing" textLength="151.5059" x="231.395" y="232.0591">Login(email, password)</text></g><g class="message" data-entity-1="part3" data-entity-2="part4" id="msg3"><polygon fill="#181818" points="857.1255,262.2578,867.1255,266.2578,857.1255,270.2578,861.1255,266.2578" style="stroke:#181818;stroke-width:1;"/><line style="stroke:#181818;stroke-width:1;" x1="414.7798" x2="863.1255" y1="266.2578" y2="266.2578"/><text fill="#000000" font-family="sans-serif" font-size="13" lengthAdjust="spacing" textLength="156.6348" x="421.7798" y="261.1919">SignIn(email, password)</text></g><g class="message" data-entity-1="part4" data-entity-2="part8" id="msg4"><polygon fill="#181818" points="1405.3955,291.3906,1415.3955,295.3906,1405.3955,299.3906,1409.3955,295.3906" style="stroke:#181818;stroke-width:1;"/><line style="stroke:#181818;stroke-width:1;" x1="869.1255" x2="1411.3955" y1="295.3906" y2="295.3906"/><text fill="#000000" font-family="sans-serif" font-size="13" lengthAdjust="spacing" textLength="256.915" x="876.1255" y="290.3247">PasswordSignInAsync(email, password)</text></g><g class="message" data-entity-1="part8" data-entity-2="part7" id="msg5"><polygon fill="#181818" points="1274.8271,320.5234,1264.8271,324.5234,1274.8271,328.5234,1270.8271,324.5234" style="stroke:#181818;stroke-width:1;"/><line style="stroke:#181818;stroke-width:1;" x1="1268.8271" x2="1416.3955" y1="324.5234" y2="324.5234"/><text fill="#000000" font-family="sans-serif" font-size="13" lengthAdjust="spacing" textLength="129.5684" x="1280.8271" y="319.4575">Validate credentials</text></g><g class="message" data-entity-1="part7" data-entity-2="part8" id="msg6"><polygon fill="#181818" points="1405.3955,349.6563,1415.3955,353.6563,1405.3955,357.6563,1409.3955,353.6563" style="stroke:#181818;stroke-width:1;"/><line style="stroke:#181818;stroke-width:1;stroke-dasharray:2,2;" x1="1263.8271" x2="1411.3955" y1="353.6563" y2="353.6563"/><text fill="#000000" font-family="sans-serif" font-size="13" lengthAdjust="spacing" textLength="31.1353" x="1270.8271" y="348.5903">valid</text></g><g class="message" data-entity-1="part8" data-entity-2="part4" id="msg7"><polygon fill="#181818" points="880.1255,378.7891,870.1255,382.7891,880.1255,386.7891,876.1255,382.7891" style="stroke:#181818;stroke-width:1;"/><line style="stroke:#181818;stroke-width:1;stroke-dasharray:2,2;" x1="874.1255" x2="1416.3955" y1="382.7891" y2="382.7891"/><text fill="#000000" font-family="sans-serif" font-size="13" lengthAdjust="spacing" textLength="162.6079" x="886.1255" y="377.7231">SignInResult(Succeeded)</text></g><g class="message" data-entity-1="part4" data-entity-2="part9" id="msg8"><polygon fill="#181818" points="1583.8569,407.9219,1593.8569,411.9219,1583.8569,415.9219,1587.8569,411.9219" style="stroke:#181818;stroke-width:1;"/><line style="stroke:#181818;stroke-width:1;" x1="869.1255" x2="1589.8569" y1="411.9219" y2="411.9219"/><text fill="#000000" font-family="sans-serif" font-size="13" lengthAdjust="spacing" textLength="165.001" x="876.1255" y="406.856">FindByEmailAsync(email)</text></g><g class="message" data-entity-1="part9" data-entity-2="part7" id="msg9"><polygon fill="#181818" points="1274.8271,437.0547,1264.8271,441.0547,1274.8271,445.0547,1270.8271,441.0547" style="stroke:#181818;stroke-width:1;"/><line style="stroke:#181818;stroke-width:1;" x1="1268.8271" x2="1594.8569" y1="441.0547" y2="441.0547"/><text fill="#000000" font-family="sans-serif" font-size="13" lengthAdjust="spacing" textLength="55.6563" x="1280.8271" y="435.9888">Get user</text></g><g class="message" data-entity-1="part7" data-entity-2="part9" id="msg10"><polygon fill="#181818" points="1583.8569,466.1875,1593.8569,470.1875,1583.8569,474.1875,1587.8569,470.1875" style="stroke:#181818;stroke-width:1;"/><line style="stroke:#181818;stroke-width:1;stroke-dasharray:2,2;" x1="1263.8271" x2="1589.8569" y1="470.1875" y2="470.1875"/><text fill="#000000" font-family="sans-serif" font-size="13" lengthAdjust="spacing" textLength="28.355" x="1270.8271" y="465.1216">user</text></g><g class="message" data-entity-1="part9" data-entity-2="part4" id="msg11"><polygon fill="#181818" points="880.1255,495.3203,870.1255,499.3203,880.1255,503.3203,876.1255,499.3203" style="stroke:#181818;stroke-width:1;"/><line style="stroke:#181818;stroke-width:1;stroke-dasharray:2,2;" x1="874.1255" x2="1594.8569" y1="499.3203" y2="499.3203"/><text fill="#000000" font-family="sans-serif" font-size="13" lengthAdjust="spacing" textLength="28.355" x="886.1255" y="494.2544">user</text></g><g class="message" data-entity-1="part4" data-entity-2="part9" id="msg12"><polygon fill="#181818" points="1583.8569,524.4531,1593.8569,528.4531,1583.8569,532.4531,1587.8569,528.4531" style="stroke:#181818;stroke-width:1;"/><line style="stroke:#181818;stroke-width:1;" x1="869.1255" x2="1589.8569" y1="528.4531" y2="528.4531"/><text fill="#000000" font-family="sans-serif" font-size="13" lengthAdjust="spacing" textLength="135.7827" x="876.1255" y="523.3872">GetRolesAsync(user)</text></g><g class="message" data-entity-1="part9" data-entity-2="part7" id="msg13"><polygon fill="#181818" points="1274.8271,553.5859,1264.8271,557.5859,1274.8271,561.5859,1270.8271,557.5859" style="stroke:#181818;stroke-width:1;"/><line style="stroke:#181818;stroke-width:1;" x1="1268.8271" x2="1594.8569" y1="557.5859" y2="557.5859"/><text fill="#000000" font-family="sans-serif" font-size="13" lengthAdjust="spacing" textLength="58.9824" x="1280.8271" y="552.52">Get roles</text></g><g class="message" data-entity-1="part7" data-entity-2="part9" id="msg14"><polygon fill="#181818" points="1583.8569,582.7188,1593.8569,586.7188,1583.8569,590.7188,1587.8569,586.7188" style="stroke:#181818;stroke-width:1;"/><line style="stroke:#181818;stroke-width:1;stroke-dasharray:2,2;" x1="1263.8271" x2="1589.8569" y1="586.7188" y2="586.7188"/><text fill="#000000" font-family="sans-serif" font-size="13" lengthAdjust="spacing" textLength="31.6812" x="1270.8271" y="581.6528">roles</text></g><g class="message" data-entity-1="part9" data-entity-2="part4" id="msg15"><polygon fill="#181818" points="880.1255,611.8516,870.1255,615.8516,880.1255,619.8516,876.1255,615.8516" style="stroke:#181818;stroke-width:1;"/><line style="stroke:#181818;stroke-width:1;stroke-dasharray:2,2;" x1="874.1255" x2="1594.8569" y1="615.8516" y2="615.8516"/><text fill="#000000" font-family="sans-serif" font-size="13" lengthAdjust="spacing" textLength="31.6812" x="886.1255" y="610.7856">roles</text></g><g class="message" data-entity-1="part4" data-entity-2="part3" id="msg16"><polygon fill="#181818" points="425.7798,640.9844,415.7798,644.9844,425.7798,648.9844,421.7798,644.9844" style="stroke:#181818;stroke-width:1;"/><line style="stroke:#181818;stroke-width:1;stroke-dasharray:2,2;" x1="419.7798" x2="868.1255" y1="644.9844" y2="644.9844"/><text fill="#000000" font-family="sans-serif" font-size="13" lengthAdjust="spacing" textLength="173.6401" x="431.7798" y="639.9185">AuthResult(Success, roles)</text></g><g class="message" data-entity-1="part3" data-entity-2="part5" id="msg17"><polygon fill="#181818" points="980.1353,670.1172,990.1353,674.1172,980.1353,678.1172,984.1353,674.1172" style="stroke:#181818;stroke-width:1;"/><line style="stroke:#181818;stroke-width:1;" x1="414.7798" x2="986.1353" y1="674.1172" y2="674.1172"/><text fill="#000000" font-family="sans-serif" font-size="13" lengthAdjust="spacing" textLength="162.9634" x="421.7798" y="669.0513">ResolveStartRoute(roles)</text></g><g class="message" data-entity-1="part5" data-entity-2="part3" id="msg18"><polygon fill="#181818" points="425.7798,699.25,415.7798,703.25,425.7798,707.25,421.7798,703.25" style="stroke:#181818;stroke-width:1;"/><line style="stroke:#181818;stroke-width:1;stroke-dasharray:2,2;" x1="419.7798" x2="991.1353" y1="703.25" y2="703.25"/><text fill="#000000" font-family="sans-serif" font-size="13" lengthAdjust="spacing" textLength="34.6328" x="431.7798" y="698.1841">route</text></g><g class="message" data-entity-1="part3" data-entity-2="part6" id="msg19"><polygon fill="#181818" points="1124.4937,728.3828,1134.4937,732.3828,1124.4937,736.3828,1128.4937,732.3828" style="stroke:#181818;stroke-width:1;"/><line style="stroke:#181818;stroke-width:1;" x1="414.7798" x2="1130.4937" y1="732.3828" y2="732.3828"/><text fill="#000000" font-family="sans-serif" font-size="13" lengthAdjust="spacing" textLength="103.0859" x="421.7798" y="727.3169">Navigate(route)</text></g><g class="message" data-entity-1="part6" data-entity-2="part2" id="msg20"><polygon fill="#181818" points="235.395,757.5156,225.395,761.5156,235.395,765.5156,231.395,761.5156" style="stroke:#181818;stroke-width:1;"/><line style="stroke:#181818;stroke-width:1;stroke-dasharray:2,2;" x1="229.395" x2="1135.4937" y1="761.5156" y2="761.5156"/><text fill="#000000" font-family="sans-serif" font-size="13" lengthAdjust="spacing" textLength="134.3989" x="241.395" y="756.4497">Navigation triggered</text></g><g class="message" data-entity-1="part3" data-entity-2="part2" id="msg21"><polygon fill="#181818" points="235.395,786.6484,225.395,790.6484,235.395,794.6484,231.395,790.6484" style="stroke:#181818;stroke-width:1;"/><line style="stroke:#181818;stroke-width:1;stroke-dasharray:2,2;" x1="229.395" x2="413.7798" y1="790.6484" y2="790.6484"/><text fill="#000000" font-family="sans-serif" font-size="13" lengthAdjust="spacing" textLength="97.5508" x="241.395" y="785.5825">ShowSuccess()</text></g><rect fill="#EEEEEE" height="3" style="stroke:#EEEEEE;stroke-width:1;" width="1682.1807" x="0" y="819.2148"/><line style="stroke:#000000;stroke-width:1;" x1="0" x2="1682.1807" y1="819.2148" y2="819.2148"/><line style="stroke:#000000;stroke-width:1;" x1="0" x2="1682.1807" y1="822.2148" y2="822.2148"/><rect fill="#EEEEEE" height="23.1328" style="stroke:#000000;stroke-width:2;" width="304.875" x="688.6528" y="808.6484"/><text fill="#000000" font-family="sans-serif" font-size="13" font-weight="bold" lengthAdjust="spacing" textLength="286.3491" x="694.6528" y="824.7153">Alternative Flow - Ugyldige credentials</text><g class="message" data-entity-1="part1" data-entity-2="part2" id="msg22"><polygon fill="#181818" points="212.395,858.9141,222.395,862.9141,212.395,866.9141,216.395,862.9141" style="stroke:#181818;stroke-width:1;"/><line style="stroke:#181818;stroke-width:1;" x1="42.313" x2="218.395" y1="862.9141" y2="862.9141"/><text fill="#000000" font-family="sans-serif" font-size="13" lengthAdjust="spacing" textLength="82.2402" x="49.313" y="857.8481">Klik 'Log ind'</text></g><g class="message" data-entity-1="part2" data-entity-2="part3" id="msg23"><polygon fill="#181818" points="402.7798,888.0469,412.7798,892.0469,402.7798,896.0469,406.7798,892.0469" style="stroke:#181818;stroke-width:1;"/><line style="stroke:#181818;stroke-width:1;" x1="224.395" x2="408.7798" y1="892.0469" y2="892.0469"/><text fill="#000000" font-family="sans-serif" font-size="13" lengthAdjust="spacing" textLength="151.5059" x="231.395" y="886.981">Login(email, password)</text></g><g class="message" data-entity-1="part3" data-entity-2="part4" id="msg24"><polygon fill="#181818" points="857.1255,917.1797,867.1255,921.1797,857.1255,925.1797,861.1255,921.1797" style="stroke:#181818;stroke-width:1;"/><line style="stroke:#181818;stroke-width:1;" x1="414.7798" x2="863.1255" y1="921.1797" y2="921.1797"/><text fill="#000000" font-family="sans-serif" font-size="13" lengthAdjust="spacing" textLength="156.6348" x="421.7798" y="916.1138">SignIn(email, password)</text></g><g class="message" data-entity-1="part4" data-entity-2="part8" id="msg25"><polygon fill="#181818" points="1405.3955,946.3125,1415.3955,950.3125,1405.3955,954.3125,1409.3955,950.3125" style="stroke:#181818;stroke-width:1;"/><line style="stroke:#181818;stroke-width:1;" x1="869.1255" x2="1411.3955" y1="950.3125" y2="950.3125"/><text fill="#000000" font-family="sans-serif" font-size="13" lengthAdjust="spacing" textLength="256.915" x="876.1255" y="945.2466">PasswordSignInAsync(email, password)</text></g><g class="message" data-entity-1="part8" data-entity-2="part7" id="msg26"><polygon fill="#181818" points="1274.8271,975.4453,1264.8271,979.4453,1274.8271,983.4453,1270.8271,979.4453" style="stroke:#181818;stroke-width:1;"/><line style="stroke:#181818;stroke-width:1;" x1="1268.8271" x2="1416.3955" y1="979.4453" y2="979.4453"/><text fill="#000000" font-family="sans-serif" font-size="13" lengthAdjust="spacing" textLength="129.5684" x="1280.8271" y="974.3794">Validate credentials</text></g><g class="message" data-entity-1="part7" data-entity-2="part8" id="msg27"><polygon fill="#181818" points="1405.3955,1004.5781,1415.3955,1008.5781,1405.3955,1012.5781,1409.3955,1008.5781" style="stroke:#181818;stroke-width:1;"/><line style="stroke:#181818;stroke-width:1;stroke-dasharray:2,2;" x1="1263.8271" x2="1411.3955" y1="1008.5781" y2="1008.5781"/><text fill="#000000" font-family="sans-serif" font-size="13" lengthAdjust="spacing" textLength="42.9863" x="1270.8271" y="1003.5122">invalid</text></g><g class="message" data-entity-1="part8" data-entity-2="part4" id="msg28"><polygon fill="#181818" points="880.1255,1033.7109,870.1255,1037.7109,880.1255,1041.7109,876.1255,1037.7109" style="stroke:#181818;stroke-width:1;"/><line style="stroke:#181818;stroke-width:1;stroke-dasharray:2,2;" x1="874.1255" x2="1416.3955" y1="1037.7109" y2="1037.7109"/><text fill="#000000" font-family="sans-serif" font-size="13" lengthAdjust="spacing" textLength="130.2412" x="886.1255" y="1032.645">SignInResult(Failed)</text></g><g class="message" data-entity-1="part4" data-entity-2="part3" id="msg29"><polygon fill="#181818" points="425.7798,1062.8438,415.7798,1066.8438,425.7798,1070.8438,421.7798,1066.8438" style="stroke:#181818;stroke-width:1;"/><line style="stroke:#181818;stroke-width:1;stroke-dasharray:2,2;" x1="419.7798" x2="868.1255" y1="1066.8438" y2="1066.8438"/><text fill="#000000" font-family="sans-serif" font-size="13" lengthAdjust="spacing" textLength="369.7129" x="431.7798" y="1061.7778">AuthResult(Rejected, "Forkert email eller adgangskode")</text></g><g class="message" data-entity-1="part3" data-entity-2="part2" id="msg30"><polygon fill="#181818" points="235.395,1091.9766,225.395,1095.9766,235.395,1099.9766,231.395,1095.9766" style="stroke:#181818;stroke-width:1;"/><line style="stroke:#181818;stroke-width:1;stroke-dasharray:2,2;" x1="229.395" x2="413.7798" y1="1095.9766" y2="1095.9766"/><text fill="#000000" font-family="sans-serif" font-size="13" lengthAdjust="spacing" textLength="166.3848" x="241.395" y="1090.9106">ShowError(errorMessage)</text></g><rect fill="#EEEEEE" height="3" style="stroke:#EEEEEE;stroke-width:1;" width="1682.1807" x="0" y="1124.543"/><line style="stroke:#000000;stroke-width:1;" x1="0" x2="1682.1807" y1="1124.543" y2="1124.543"/><line style="stroke:#000000;stroke-width:1;" x1="0" x2="1682.1807" y1="1127.543" y2="1127.543"/><rect fill="#EEEEEE" height="23.1328" style="stroke:#000000;stroke-width:2;" width="272.2417" x="704.9695" y="1113.9766"/><text fill="#000000" font-family="sans-serif" font-size="13" font-weight="bold" lengthAdjust="spacing" textLength="253.7158" x="710.9695" y="1130.0435">Alternative Flow - Manglende rolle</text><g class="message" data-entity-1="part1" data-entity-2="part2" id="msg31"><polygon fill="#181818" points="212.395,1164.2422,222.395,1168.2422,212.395,1172.2422,216.395,1168.2422" style="stroke:#181818;stroke-width:1;"/><line style="stroke:#181818;stroke-width:1;" x1="42.313" x2="218.395" y1="1168.2422" y2="1168.2422"/><text fill="#000000" font-family="sans-serif" font-size="13" lengthAdjust="spacing" textLength="82.2402" x="49.313" y="1163.1763">Klik 'Log ind'</text></g><g class="message" data-entity-1="part2" data-entity-2="part3" id="msg32"><polygon fill="#181818" points="402.7798,1193.375,412.7798,1197.375,402.7798,1201.375,406.7798,1197.375" style="stroke:#181818;stroke-width:1;"/><line style="stroke:#181818;stroke-width:1;" x1="224.395" x2="408.7798" y1="1197.375" y2="1197.375"/><text fill="#000000" font-family="sans-serif" font-size="13" lengthAdjust="spacing" textLength="151.5059" x="231.395" y="1192.3091">Login(email, password)</text></g><g class="message" data-entity-1="part3" data-entity-2="part4" id="msg33"><polygon fill="#181818" points="857.1255,1222.5078,867.1255,1226.5078,857.1255,1230.5078,861.1255,1226.5078" style="stroke:#181818;stroke-width:1;"/><line style="stroke:#181818;stroke-width:1;" x1="414.7798" x2="863.1255" y1="1226.5078" y2="1226.5078"/><text fill="#000000" font-family="sans-serif" font-size="13" lengthAdjust="spacing" textLength="156.6348" x="421.7798" y="1221.4419">SignIn(email, password)</text></g><g class="message" data-entity-1="part4" data-entity-2="part8" id="msg34"><polygon fill="#181818" points="1405.3955,1251.6406,1415.3955,1255.6406,1405.3955,1259.6406,1409.3955,1255.6406" style="stroke:#181818;stroke-width:1;"/><line style="stroke:#181818;stroke-width:1;" x1="869.1255" x2="1411.3955" y1="1255.6406" y2="1255.6406"/><text fill="#000000" font-family="sans-serif" font-size="13" lengthAdjust="spacing" textLength="256.915" x="876.1255" y="1250.5747">PasswordSignInAsync(email, password)</text></g><g class="message" data-entity-1="part8" data-entity-2="part7" id="msg35"><polygon fill="#181818" points="1274.8271,1280.7734,1264.8271,1284.7734,1274.8271,1288.7734,1270.8271,1284.7734" style="stroke:#181818;stroke-width:1;"/><line style="stroke:#181818;stroke-width:1;" x1="1268.8271" x2="1416.3955" y1="1284.7734" y2="1284.7734"/><text fill="#000000" font-family="sans-serif" font-size="13" lengthAdjust="spacing" textLength="129.5684" x="1280.8271" y="1279.7075">Validate credentials</text></g><g class="message" data-entity-1="part7" data-entity-2="part8" id="msg36"><polygon fill="#181818" points="1405.3955,1309.9063,1415.3955,1313.9063,1405.3955,1317.9063,1409.3955,1313.9063" style="stroke:#181818;stroke-width:1;"/><line style="stroke:#181818;stroke-width:1;stroke-dasharray:2,2;" x1="1263.8271" x2="1411.3955" y1="1313.9063" y2="1313.9063"/><text fill="#000000" font-family="sans-serif" font-size="13" lengthAdjust="spacing" textLength="31.1353" x="1270.8271" y="1308.8403">valid</text></g><g class="message" data-entity-1="part8" data-entity-2="part4" id="msg37"><polygon fill="#181818" points="880.1255,1339.0391,870.1255,1343.0391,880.1255,1347.0391,876.1255,1343.0391" style="stroke:#181818;stroke-width:1;"/><line style="stroke:#181818;stroke-width:1;stroke-dasharray:2,2;" x1="874.1255" x2="1416.3955" y1="1343.0391" y2="1343.0391"/><text fill="#000000" font-family="sans-serif" font-size="13" lengthAdjust="spacing" textLength="162.6079" x="886.1255" y="1337.9731">SignInResult(Succeeded)</text></g><g class="message" data-entity-1="part4" data-entity-2="part9" id="msg38"><polygon fill="#181818" points="1583.8569,1368.1719,1593.8569,1372.1719,1583.8569,1376.1719,1587.8569,1372.1719" style="stroke:#181818;stroke-width:1;"/><line style="stroke:#181818;stroke-width:1;" x1="869.1255" x2="1589.8569" y1="1372.1719" y2="1372.1719"/><text fill="#000000" font-family="sans-serif" font-size="13" lengthAdjust="spacing" textLength="165.001" x="876.1255" y="1367.106">FindByEmailAsync(email)</text></g><g class="message" data-entity-1="part9" data-entity-2="part7" id="msg39"><polygon fill="#181818" points="1274.8271,1397.3047,1264.8271,1401.3047,1274.8271,1405.3047,1270.8271,1401.3047" style="stroke:#181818;stroke-width:1;"/><line style="stroke:#181818;stroke-width:1;" x1="1268.8271" x2="1594.8569" y1="1401.3047" y2="1401.3047"/><text fill="#000000" font-family="sans-serif" font-size="13" lengthAdjust="spacing" textLength="55.6563" x="1280.8271" y="1396.2388">Get user</text></g><g class="message" data-entity-1="part7" data-entity-2="part9" id="msg40"><polygon fill="#181818" points="1583.8569,1426.4375,1593.8569,1430.4375,1583.8569,1434.4375,1587.8569,1430.4375" style="stroke:#181818;stroke-width:1;"/><line style="stroke:#181818;stroke-width:1;stroke-dasharray:2,2;" x1="1263.8271" x2="1589.8569" y1="1430.4375" y2="1430.4375"/><text fill="#000000" font-family="sans-serif" font-size="13" lengthAdjust="spacing" textLength="28.355" x="1270.8271" y="1425.3716">user</text></g><g class="message" data-entity-1="part9" data-entity-2="part4" id="msg41"><polygon fill="#181818" points="880.1255,1455.5703,870.1255,1459.5703,880.1255,1463.5703,876.1255,1459.5703" style="stroke:#181818;stroke-width:1;"/><line style="stroke:#181818;stroke-width:1;stroke-dasharray:2,2;" x1="874.1255" x2="1594.8569" y1="1459.5703" y2="1459.5703"/><text fill="#000000" font-family="sans-serif" font-size="13" lengthAdjust="spacing" textLength="28.355" x="886.1255" y="1454.5044">user</text></g><g class="message" data-entity-1="part4" data-entity-2="part9" id="msg42"><polygon fill="#181818" points="1583.8569,1484.7031,1593.8569,1488.7031,1583.8569,1492.7031,1587.8569,1488.7031" style="stroke:#181818;stroke-width:1;"/><line style="stroke:#181818;stroke-width:1;" x1="869.1255" x2="1589.8569" y1="1488.7031" y2="1488.7031"/><text fill="#000000" font-family="sans-serif" font-size="13" lengthAdjust="spacing" textLength="135.7827" x="876.1255" y="1483.6372">GetRolesAsync(user)</text></g><g class="message" data-entity-1="part9" data-entity-2="part7" id="msg43"><polygon fill="#181818" points="1274.8271,1513.8359,1264.8271,1517.8359,1274.8271,1521.8359,1270.8271,1517.8359" style="stroke:#181818;stroke-width:1;"/><line style="stroke:#181818;stroke-width:1;" x1="1268.8271" x2="1594.8569" y1="1517.8359" y2="1517.8359"/><text fill="#000000" font-family="sans-serif" font-size="13" lengthAdjust="spacing" textLength="58.9824" x="1280.8271" y="1512.77">Get roles</text></g><g class="message" data-entity-1="part7" data-entity-2="part9" id="msg44"><polygon fill="#181818" points="1583.8569,1542.9688,1593.8569,1546.9688,1583.8569,1550.9688,1587.8569,1546.9688" style="stroke:#181818;stroke-width:1;"/><line style="stroke:#181818;stroke-width:1;stroke-dasharray:2,2;" x1="1263.8271" x2="1589.8569" y1="1546.9688" y2="1546.9688"/><text fill="#000000" font-family="sans-serif" font-size="13" lengthAdjust="spacing" textLength="60.9819" x="1270.8271" y="1541.9028">roles = []</text></g><g class="message" data-entity-1="part9" data-entity-2="part4" id="msg45"><polygon fill="#181818" points="880.1255,1572.1016,870.1255,1576.1016,880.1255,1580.1016,876.1255,1576.1016" style="stroke:#181818;stroke-width:1;"/><line style="stroke:#181818;stroke-width:1;stroke-dasharray:2,2;" x1="874.1255" x2="1594.8569" y1="1576.1016" y2="1576.1016"/><text fill="#000000" font-family="sans-serif" font-size="13" lengthAdjust="spacing" textLength="10.1436" x="886.1255" y="1571.0356">[]</text></g><g class="message" data-entity-1="part4" data-entity-2="part3" id="msg46"><polygon fill="#181818" points="425.7798,1601.2344,415.7798,1605.2344,425.7798,1609.2344,421.7798,1605.2344" style="stroke:#181818;stroke-width:1;"/><line style="stroke:#181818;stroke-width:1;stroke-dasharray:2,2;" x1="419.7798" x2="868.1255" y1="1605.2344" y2="1605.2344"/><text fill="#000000" font-family="sans-serif" font-size="13" lengthAdjust="spacing" textLength="430.3457" x="431.7798" y="1600.1685">AuthResult(Denied, "Du har ikke adgang. Kontakt administrator.")</text></g><g class="message" data-entity-1="part3" data-entity-2="part2" id="msg47"><polygon fill="#181818" points="235.395,1630.3672,225.395,1634.3672,235.395,1638.3672,231.395,1634.3672" style="stroke:#181818;stroke-width:1;"/><line style="stroke:#181818;stroke-width:1;stroke-dasharray:2,2;" x1="229.395" x2="413.7798" y1="1634.3672" y2="1634.3672"/><text fill="#000000" font-family="sans-serif" font-size="13" lengthAdjust="spacing" textLength="135.8462" x="241.395" y="1629.3013">ShowError(message)</text></g><?plantuml-src xLRFJzim5BxxhtZAXLIZQBjEAn9GEY76X5gLoxR38taANbsxifsWxg_VivCkILiAOXUaxLBLpz_tVdzMlFIAO7xn_WCCOKQBYhJB9HOMbv2EoSb23nLLf0Py_yKK87KEgJLAqJqwikG7Gc3cZONabgmp6XKbW0xcV2l4lIbrZdOD2PEblfFq2EcvmbzCk33BbT6a_I0Imft8ZFRi7PApqZzSr0T5DWBQOnys8rl9h8xQERUWcKVhRx6WAJcZgiRTvj3Ylc8b2_JIwAvBjWgHeyTGC2HNEMSi_HfcN7IDs9Z6zsB5aMGcLwWzn-NkNUaRr1pQVWeDEOtudhrF2Q1TGiSgn6W4DoWrpCei8yVUCj9efO7HI8Y0XE5fR2PyX2kTUtGUQ8bIlLkXSu_6vj_rjP8BE6hcUIGYcbbjXvaR1vP6vZ5ig3pj3eWfdOOpfwvi3waBOrQl0yoxRP2r_SojTRRhf4zYBstVsSKTAibJ8iWiHJig9pg8uPwmLU1i-tsYA5wNKlaqTfq3x2cgCoLcJRYpv-lBK4Idde7eehPh-4mUog2RhRpxdYEYvsOdvGWvd1_7cXf5hauk49xFpGR2uUHgoE7iQam_lUtj2vVTbZjtNFDsDd2ZOoOrVwFUfwRqb3QKFvYTE3R0jbsovFcgUGw24yOCHB0EMssrhmLuAmikbVA-enOxUp2FJHdf84huJ7cockaLmKGPbX_CYxNAPT7Ru7sY_WlnlaQxRrEwKhz2l1DEYxPBEh1vK_f9cQVy69A9iGkopKiA5B6O5wWBjp0v9OC3ax-qrjYKmkyDRm1d-kGES2658fqJH5TlOFp_d-v_wkc64NpxyKoA37YnXCQaPHJGk8G7j20N2sg4SmBNJCA5v_DIQkcyHVwcEdc1bfQDZ7u3?></g></svg>