<?plantuml 1.2026.2beta3?><svg xmlns="http://www.w3.org/2000/svg" xmlns:xlink="http://www.w3.org/1999/xlink" contentStyleType="text/css" data-diagram-type="CLASS" height="536px" preserveAspectRatio="none" style="width:2735px;height:536px;background:#FFFFFF;" version="1.1" viewBox="0 0 2735 536" width="2735px" zoomAndPan="magnify"><title>DCD - UC01 Log ind (rollebaseret) - DI Contracts</title><defs/><g><g class="title" data-source-line="1"><text fill="#000000" font-family="sans-serif" font-size="14" font-weight="bold" lengthAdjust="spacing" textLength="380.4609" x="1170.3705" y="22.9951">DCD - UC01 Log ind (rollebaseret) - DI Contracts</text></g><!--class IAuthService--><g class="entity" data-qualified-name="IAuthService" data-source-line="6" id="ent0002"><rect fill="#F1F1F1" height="64.2969" rx="2.5" ry="2.5" style="stroke:#181818;stroke-width:0.5;" width="376.9912" x="580.95" y="449.2369"/><ellipse cx="720.8543" cy="465.2369" fill="#B4A7E5" rx="11" ry="11" style="stroke:#181818;stroke-width:1;"/><path d="M716.7762,461.0025 L716.7762,458.8462 L724.1668,458.8462 L724.1668,461.0025 L721.698,461.0025 L721.698,469.0806 L724.1668,469.0806 L724.1668,471.2369 L716.7762,471.2369 L716.7762,469.0806 L719.2449,469.0806 L719.2449,461.0025 L716.7762,461.0025 Z " fill="#000000"/><text fill="#000000" font-family="sans-serif" font-size="14" font-style="italic" lengthAdjust="spacing" textLength="88.6826" x="741.3543" y="470.0836">IAuthService</text><line style="stroke:#181818;stroke-width:0.5;" x1="581.95" x2="956.9412" y1="481.2369" y2="481.2369"/><line style="stroke:#181818;stroke-width:0.5;" x1="581.95" x2="956.9412" y1="489.2369" y2="489.2369"/><text fill="#000000" font-family="sans-serif" font-size="14" lengthAdjust="spacing" textLength="364.9912" x="586.95" y="506.232">+SignIn(email: string, password: string): AuthResult</text></g><!--class IStartPageResolver--><g class="entity" data-qualified-name="IStartPageResolver" data-source-line="10" id="ent0003"><rect fill="#F1F1F1" height="64.2969" rx="2.5" ry="2.5" style="stroke:#181818;stroke-width:0.5;" width="281.2539" x="264.82" y="449.2369"/><ellipse cx="334.3996" cy="465.2369" fill="#B4A7E5" rx="11" ry="11" style="stroke:#181818;stroke-width:1;"/><path d="M330.3215,461.0025 L330.3215,458.8462 L337.7121,458.8462 L337.7121,461.0025 L335.2433,461.0025 L335.2433,469.0806 L337.7121,469.0806 L337.7121,471.2369 L330.3215,471.2369 L330.3215,469.0806 L332.7902,469.0806 L332.7902,461.0025 L330.3215,461.0025 Z " fill="#000000"/><text fill="#000000" font-family="sans-serif" font-size="14" font-style="italic" lengthAdjust="spacing" textLength="133.5947" x="354.8996" y="470.0836">IStartPageResolver</text><line style="stroke:#181818;stroke-width:0.5;" x1="265.82" x2="545.0739" y1="481.2369" y2="481.2369"/><line style="stroke:#181818;stroke-width:0.5;" x1="265.82" x2="545.0739" y1="489.2369" y2="489.2369"/><text fill="#000000" font-family="sans-serif" font-size="14" lengthAdjust="spacing" textLength="269.2539" x="270.82" y="506.232">+ResolveStartRoute(role: Role): string</text></g><!--class INavigationService--><g class="entity" data-qualified-name="INavigationService" data-source-line="14" id="ent0004"><rect fill="#F1F1F1" height="64.2969" rx="2.5" ry="2.5" style="stroke:#181818;stroke-width:0.5;" width="222.8955" x="7" y="449.2369"/><ellipse cx="48.782" cy="465.2369" fill="#B4A7E5" rx="11" ry="11" style="stroke:#181818;stroke-width:1;"/><path d="M44.7039,461.0025 L44.7039,458.8462 L52.0945,458.8462 L52.0945,461.0025 L49.6258,461.0025 L49.6258,469.0806 L52.0945,469.0806 L52.0945,471.2369 L44.7039,471.2369 L44.7039,469.0806 L47.1727,469.0806 L47.1727,461.0025 L44.7039,461.0025 Z " fill="#000000"/><text fill="#000000" font-family="sans-serif" font-size="14" font-style="italic" lengthAdjust="spacing" textLength="131.3799" x="68.7336" y="470.0836">INavigationService</text><line style="stroke:#181818;stroke-width:0.5;" x1="8" x2="228.8955" y1="481.2369" y2="481.2369"/><line style="stroke:#181818;stroke-width:0.5;" x1="8" x2="228.8955" y1="489.2369" y2="489.2369"/><text fill="#000000" font-family="sans-serif" font-size="14" lengthAdjust="spacing" textLength="210.8955" x="13" y="506.232">+Navigate(route: string): void</text></g><!--class IIdentityGateway--><g class="entity" data-qualified-name="IIdentityGateway" data-source-line="19" id="ent0005"><rect fill="#F1F1F1" height="96.8906" rx="2.5" ry="2.5" style="stroke:#181818;stroke-width:0.5;" width="495.7109" x="992.59" y="432.9369"/><ellipse cx="1176.381" cy="448.9369" fill="#B4A7E5" rx="11" ry="11" style="stroke:#181818;stroke-width:1;"/><path d="M1172.3029,444.7025 L1172.3029,442.5463 L1179.6935,442.5463 L1179.6935,444.7025 L1177.2248,444.7025 L1177.2248,452.7806 L1179.6935,452.7806 L1179.6935,454.9369 L1172.3029,454.9369 L1172.3029,452.7806 L1174.7716,452.7806 L1174.7716,444.7025 L1172.3029,444.7025 Z " fill="#000000"/><text fill="#000000" font-family="sans-serif" font-size="14" font-style="italic" lengthAdjust="spacing" textLength="119.6289" x="1196.881" y="453.7836">IIdentityGateway</text><line style="stroke:#181818;stroke-width:0.5;" x1="993.59" x2="1487.3009" y1="464.9369" y2="464.9369"/><line style="stroke:#181818;stroke-width:0.5;" x1="993.59" x2="1487.3009" y1="472.9369" y2="472.9369"/><text fill="#000000" font-family="sans-serif" font-size="14" lengthAdjust="spacing" textLength="483.7109" x="998.59" y="489.932">+PasswordSignInAsync(email: string, password: string): SignInResult</text><text fill="#000000" font-family="sans-serif" font-size="14" lengthAdjust="spacing" textLength="333.5117" x="998.59" y="506.2289">+FindByEmailAsync(email: string): IdentityUser</text><text fill="#000000" font-family="sans-serif" font-size="14" lengthAdjust="spacing" textLength="285.3594" x="998.59" y="522.5257">+GetRoleAsync(user: IdentityUser): Role</text></g><!--class AuthController--><g class="entity" data-qualified-name="AuthController" data-source-line="26" id="ent0006"><rect fill="#F1F1F1" height="113.1875" rx="2.5" ry="2.5" style="stroke:#181818;stroke-width:0.5;" width="324.3955" x="581.25" y="230.4669"/><ellipse cx="688.2051" cy="246.4669" fill="#ADD1B2" rx="11" ry="11" style="stroke:#181818;stroke-width:1;"/><path d="M691.1738,252.1075 Q690.5957,252.4044 689.9551,252.545 Q689.3145,252.7012 688.6113,252.7012 Q686.1113,252.7012 684.7832,251.0606 Q683.4707,249.4044 683.4707,246.2794 Q683.4707,243.1544 684.7832,241.4981 Q686.1113,239.8419 688.6113,239.8419 Q689.3145,239.8419 689.9551,239.9981 Q690.6113,240.1544 691.1738,240.4512 L691.1738,243.17 Q690.5488,242.5919 689.9551,242.3262 Q689.3613,242.045 688.7363,242.045 Q687.3926,242.045 686.7051,243.1231 Q686.0176,244.1856 686.0176,246.2794 Q686.0176,248.3731 686.7051,249.4512 Q687.3926,250.5137 688.7363,250.5137 Q689.3613,250.5137 689.9551,250.2481 Q690.5488,249.9669 691.1738,249.3887 L691.1738,252.1075 Z " fill="#000000"/><text fill="#000000" font-family="sans-serif" font-size="14" lengthAdjust="spacing" textLength="101.9854" x="708.7051" y="251.3136">AuthController</text><line style="stroke:#181818;stroke-width:0.5;" x1="582.25" x2="904.6455" y1="262.4669" y2="262.4669"/><text fill="#000000" font-family="sans-serif" font-size="14" lengthAdjust="spacing" textLength="186.457" x="587.25" y="279.462">-authService: IAuthService</text><text fill="#000000" font-family="sans-serif" font-size="14" lengthAdjust="spacing" textLength="204.5859" x="587.25" y="295.7589">-resolver: IStartPageResolver</text><text fill="#000000" font-family="sans-serif" font-size="14" lengthAdjust="spacing" textLength="219.5088" x="587.25" y="312.0557">-navigation: INavigationService</text><line style="stroke:#181818;stroke-width:0.5;" x1="582.25" x2="904.6455" y1="319.3575" y2="319.3575"/><text fill="#000000" font-family="sans-serif" font-size="14" lengthAdjust="spacing" textLength="312.3955" x="587.25" y="336.3526">+Login(email: string, password: string): void</text></g><!--class LoginView--><g class="entity" data-qualified-name="LoginView" data-source-line="33" id="ent0007"><rect fill="#F1F1F1" height="96.8906" rx="2.5" ry="2.5" style="stroke:#181818;stroke-width:0.5;" width="395.1475" x="545.87" y="44.2969"/><ellipse cx="703.4213" cy="60.2969" fill="#ADD1B2" rx="11" ry="11" style="stroke:#181818;stroke-width:1;"/><path d="M706.39,65.9375 Q705.8119,66.2344 705.1713,66.375 Q704.5306,66.5313 703.8275,66.5313 Q701.3275,66.5313 699.9994,64.8906 Q698.6869,63.2344 698.6869,60.1094 Q698.6869,56.9844 699.9994,55.3281 Q701.3275,53.6719 703.8275,53.6719 Q704.5306,53.6719 705.1713,53.8281 Q705.8275,53.9844 706.39,54.2813 L706.39,57 Q705.765,56.4219 705.1713,56.1563 Q704.5775,55.875 703.9525,55.875 Q702.6088,55.875 701.9213,56.9531 Q701.2338,58.0156 701.2338,60.1094 Q701.2338,62.2031 701.9213,63.2813 Q702.6088,64.3438 703.9525,64.3438 Q704.5775,64.3438 705.1713,64.0781 Q705.765,63.7969 706.39,63.2188 L706.39,65.9375 Z " fill="#000000"/><text fill="#000000" font-family="sans-serif" font-size="14" lengthAdjust="spacing" textLength="71.5449" x="723.9213" y="65.1436">LoginView</text><line style="stroke:#181818;stroke-width:0.5;" x1="546.87" x2="940.0175" y1="76.2969" y2="76.2969"/><line style="stroke:#181818;stroke-width:0.5;" x1="546.87" x2="940.0175" y1="84.2969" y2="84.2969"/><text fill="#000000" font-family="sans-serif" font-size="14" lengthAdjust="spacing" textLength="383.1475" x="551.87" y="101.292">+OnLoginClicked(email: string, password: string): void</text><text fill="#000000" font-family="sans-serif" font-size="14" lengthAdjust="spacing" textLength="246.1758" x="551.87" y="117.5889">+ShowError(message: string): void</text><text fill="#000000" font-family="sans-serif" font-size="14" lengthAdjust="spacing" textLength="155.5791" x="551.87" y="133.8857">+ShowSuccess(): void</text></g><!--class AuthService--><g class="entity" data-qualified-name="AuthService" data-source-line="40" id="ent0008"><rect fill="#F1F1F1" height="80.5938" rx="2.5" ry="2.5" style="stroke:#181818;stroke-width:0.5;" width="376.9912" x="996.95" y="246.7669"/><ellipse cx="1138.9188" cy="262.7669" fill="#ADD1B2" rx="11" ry="11" style="stroke:#181818;stroke-width:1;"/><path d="M1141.8875,268.4075 Q1141.3094,268.7044 1140.6688,268.845 Q1140.0281,269.0012 1139.325,269.0012 Q1136.825,269.0012 1135.4969,267.3606 Q1134.1844,265.7044 1134.1844,262.5794 Q1134.1844,259.4544 1135.4969,257.7981 Q1136.825,256.1419 1139.325,256.1419 Q1140.0281,256.1419 1140.6688,256.2981 Q1141.325,256.4544 1141.8875,256.7512 L1141.8875,259.47 Q1141.2625,258.8919 1140.6688,258.6262 Q1140.075,258.345 1139.45,258.345 Q1138.1063,258.345 1137.4188,259.4231 Q1136.7313,260.4856 1136.7313,262.5794 Q1136.7313,264.6731 1137.4188,265.7512 Q1138.1063,266.8137 1139.45,266.8137 Q1140.075,266.8137 1140.6688,266.5481 Q1141.2625,266.2669 1141.8875,265.6887 L1141.8875,268.4075 Z " fill="#000000"/><text fill="#000000" font-family="sans-serif" font-size="14" lengthAdjust="spacing" textLength="84.5537" x="1159.4188" y="267.6136">AuthService</text><line style="stroke:#181818;stroke-width:0.5;" x1="997.95" x2="1372.9412" y1="278.7669" y2="278.7669"/><text fill="#000000" font-family="sans-serif" font-size="14" lengthAdjust="spacing" textLength="187.2637" x="1002.95" y="295.762">-identity: IIdentityGateway</text><line style="stroke:#181818;stroke-width:0.5;" x1="997.95" x2="1372.9412" y1="303.0637" y2="303.0637"/><text fill="#000000" font-family="sans-serif" font-size="14" lengthAdjust="spacing" textLength="364.9912" x="1002.95" y="320.0589">+SignIn(email: string, password: string): AuthResult</text></g><!--class StartPageResolver--><g class="entity" data-qualified-name="StartPageResolver" data-source-line="46" id="ent0009"><rect fill="#F1F1F1" height="64.2969" rx="2.5" ry="2.5" style="stroke:#181818;stroke-width:0.5;" width="281.2539" x="264.82" y="254.9169"/><ellipse cx="336.464" cy="270.9169" fill="#ADD1B2" rx="11" ry="11" style="stroke:#181818;stroke-width:1;"/><path d="M339.4328,276.5575 Q338.8547,276.8544 338.214,276.995 Q337.5734,277.1512 336.8703,277.1512 Q334.3703,277.1512 333.0422,275.5106 Q331.7297,273.8544 331.7297,270.7294 Q331.7297,267.6044 333.0422,265.9481 Q334.3703,264.2919 336.8703,264.2919 Q337.5734,264.2919 338.214,264.4481 Q338.8703,264.6044 339.4328,264.9012 L339.4328,267.62 Q338.8078,267.0419 338.214,266.7762 Q337.6203,266.495 336.9953,266.495 Q335.6515,266.495 334.964,267.5731 Q334.2765,268.6356 334.2765,270.7294 Q334.2765,272.8231 334.964,273.9012 Q335.6515,274.9637 336.9953,274.9637 Q337.6203,274.9637 338.214,274.6981 Q338.8078,274.4169 339.4328,273.8387 L339.4328,276.5575 Z " fill="#000000"/><text fill="#000000" font-family="sans-serif" font-size="14" lengthAdjust="spacing" textLength="129.4658" x="356.964" y="275.7636">StartPageResolver</text><line style="stroke:#181818;stroke-width:0.5;" x1="265.82" x2="545.0739" y1="286.9169" y2="286.9169"/><line style="stroke:#181818;stroke-width:0.5;" x1="265.82" x2="545.0739" y1="294.9169" y2="294.9169"/><text fill="#000000" font-family="sans-serif" font-size="14" lengthAdjust="spacing" textLength="269.2539" x="270.82" y="311.912">+ResolveStartRoute(role: Role): string</text></g><!--class NavigationService--><g class="entity" data-qualified-name="NavigationService" data-source-line="50" id="ent0010"><rect fill="#F1F1F1" height="64.2969" rx="2.5" ry="2.5" style="stroke:#181818;stroke-width:0.5;" width="222.8955" x="7" y="254.9169"/><ellipse cx="50.64" cy="270.9169" fill="#ADD1B2" rx="11" ry="11" style="stroke:#181818;stroke-width:1;"/><path d="M53.6088,276.5575 Q53.0307,276.8544 52.39,276.995 Q51.7494,277.1512 51.0463,277.1512 Q48.5463,277.1512 47.2182,275.5106 Q45.9057,273.8544 45.9057,270.7294 Q45.9057,267.6044 47.2182,265.9481 Q48.5463,264.2919 51.0463,264.2919 Q51.7494,264.2919 52.39,264.4481 Q53.0463,264.6044 53.6088,264.9012 L53.6088,267.62 Q52.9838,267.0419 52.39,266.7762 Q51.7963,266.495 51.1713,266.495 Q49.8275,266.495 49.14,267.5731 Q48.4525,268.6356 48.4525,270.7294 Q48.4525,272.8231 49.14,273.9012 Q49.8275,274.9637 51.1713,274.9637 Q51.7963,274.9637 52.39,274.6981 Q52.9838,274.4169 53.6088,273.8387 L53.6088,276.5575 Z " fill="#000000"/><text fill="#000000" font-family="sans-serif" font-size="14" lengthAdjust="spacing" textLength="127.251" x="71.0045" y="275.7636">NavigationService</text><line style="stroke:#181818;stroke-width:0.5;" x1="8" x2="228.8955" y1="286.9169" y2="286.9169"/><line style="stroke:#181818;stroke-width:0.5;" x1="8" x2="228.8955" y1="294.9169" y2="294.9169"/><text fill="#000000" font-family="sans-serif" font-size="14" lengthAdjust="spacing" textLength="210.8955" x="13" y="311.912">+Navigate(route: string): void</text></g><!--class IdentityGateway--><g class="entity" data-qualified-name="IdentityGateway" data-source-line="55" id="ent0011"><rect fill="#F1F1F1" height="137.75" rx="2.5" ry="2.5" style="stroke:#181818;stroke-width:0.5;" width="495.7109" x="1448.59" y="218.1869"/><ellipse cx="1634.4455" cy="238.3197" fill="#ADD1B2" rx="11" ry="11" style="stroke:#181818;stroke-width:1;"/><path d="M1637.4142,243.9603 Q1636.8361,244.2572 1636.1955,244.3978 Q1635.5548,244.5541 1634.8517,244.5541 Q1632.3517,244.5541 1631.0236,242.9134 Q1629.7111,241.2572 1629.7111,238.1322 Q1629.7111,235.0072 1631.0236,233.3509 Q1632.3517,231.6947 1634.8517,231.6947 Q1635.5548,231.6947 1636.1955,231.8509 Q1636.8517,232.0072 1637.4142,232.3041 L1637.4142,235.0228 Q1636.7892,234.4447 1636.1955,234.1791 Q1635.6017,233.8978 1634.9767,233.8978 Q1633.633,233.8978 1632.9455,234.9759 Q1632.258,236.0384 1632.258,238.1322 Q1632.258,240.2259 1632.9455,241.3041 Q1633.633,242.3666 1634.9767,242.3666 Q1635.6017,242.3666 1636.1955,242.1009 Q1636.7892,241.8197 1637.4142,241.2416 L1637.4142,243.9603 Z " fill="#000000"/><text fill="#000000" font-family="sans-serif" font-size="12" font-style="italic" lengthAdjust="spacing" textLength="96.8555" x="1664.2677" y="234.3255">&#171;infrastructure&#187;</text><text fill="#000000" font-family="sans-serif" font-size="14" lengthAdjust="spacing" textLength="115.5" x="1654.9455" y="250.1507">IdentityGateway</text><line style="stroke:#181818;stroke-width:0.5;" x1="1449.59" x2="1943.3009" y1="258.4525" y2="258.4525"/><text fill="#000000" font-family="sans-serif" font-size="14" lengthAdjust="spacing" textLength="222.4346" x="1454.59" y="275.4476">-signInManager: SignInManager</text><text fill="#000000" font-family="sans-serif" font-size="14" lengthAdjust="spacing" textLength="199.3975" x="1454.59" y="291.7445">-userManager: UserManager</text><line style="stroke:#181818;stroke-width:0.5;" x1="1449.59" x2="1943.3009" y1="299.0463" y2="299.0463"/><text fill="#000000" font-family="sans-serif" font-size="14" lengthAdjust="spacing" textLength="483.7109" x="1454.59" y="316.0414">+PasswordSignInAsync(email: string, password: string): SignInResult</text><text fill="#000000" font-family="sans-serif" font-size="14" lengthAdjust="spacing" textLength="333.5117" x="1454.59" y="332.3382">+FindByEmailAsync(email: string): IdentityUser</text><text fill="#000000" font-family="sans-serif" font-size="14" lengthAdjust="spacing" textLength="285.3594" x="1454.59" y="348.6351">+GetRoleAsync(user: IdentityUser): Role</text></g><!--class SignInManager--><g class="entity" data-qualified-name="SignInManager" data-source-line="64" id="ent0012"><rect fill="#F1F1F1" height="72.5625" rx="2.5" ry="2.5" style="stroke:#181818;stroke-width:0.5;" width="495.7109" x="1904.59" y="445.0969"/><ellipse cx="2095.7433" cy="465.2297" fill="#ADD1B2" rx="11" ry="11" style="stroke:#181818;stroke-width:1;"/><path d="M2098.7121,470.8703 Q2098.1339,471.1672 2097.4933,471.3078 Q2096.8527,471.4641 2096.1496,471.4641 Q2093.6496,471.4641 2092.3214,469.8234 Q2091.0089,468.1672 2091.0089,465.0422 Q2091.0089,461.9172 2092.3214,460.2609 Q2093.6496,458.6047 2096.1496,458.6047 Q2096.8527,458.6047 2097.4933,458.7609 Q2098.1496,458.9172 2098.7121,459.2141 L2098.7121,461.9328 Q2098.0871,461.3547 2097.4933,461.0891 Q2096.8996,460.8078 2096.2746,460.8078 Q2094.9308,460.8078 2094.2433,461.8859 Q2093.5558,462.9484 2093.5558,465.0422 Q2093.5558,467.1359 2094.2433,468.2141 Q2094.9308,469.2766 2096.2746,469.2766 Q2096.8996,469.2766 2097.4933,469.0109 Q2098.0871,468.7297 2098.7121,468.1516 L2098.7121,470.8703 Z " fill="#000000"/><text fill="#000000" font-family="sans-serif" font-size="12" font-style="italic" lengthAdjust="spacing" textLength="64.4824" x="2136.4543" y="461.2355">&#171;external&#187;</text><text fill="#000000" font-family="sans-serif" font-size="14" lengthAdjust="spacing" textLength="104.9043" x="2116.2433" y="477.0607">SignInManager</text><line style="stroke:#181818;stroke-width:0.5;" x1="1905.59" x2="2399.3009" y1="485.3625" y2="485.3625"/><line style="stroke:#181818;stroke-width:0.5;" x1="1905.59" x2="2399.3009" y1="493.3625" y2="493.3625"/><text fill="#000000" font-family="sans-serif" font-size="14" lengthAdjust="spacing" textLength="483.7109" x="1910.59" y="510.3576">+PasswordSignInAsync(email: string, password: string): SignInResult</text></g><!--class UserManager--><g class="entity" data-qualified-name="UserManager" data-source-line="68" id="ent0013"><rect fill="#F1F1F1" height="88.8594" rx="2.5" ry="2.5" style="stroke:#181818;stroke-width:0.5;" width="345.5117" x="1523.69" y="436.9569"/><ellipse cx="1645.5577" cy="457.0897" fill="#ADD1B2" rx="11" ry="11" style="stroke:#181818;stroke-width:1;"/><path d="M1648.5264,462.7303 Q1647.9483,463.0272 1647.3077,463.1678 Q1646.6671,463.3241 1645.9639,463.3241 Q1643.4639,463.3241 1642.1358,461.6834 Q1640.8233,460.0272 1640.8233,456.9022 Q1640.8233,453.7772 1642.1358,452.1209 Q1643.4639,450.4647 1645.9639,450.4647 Q1646.6671,450.4647 1647.3077,450.6209 Q1647.9639,450.7772 1648.5264,451.0741 L1648.5264,453.7928 Q1647.9014,453.2147 1647.3077,452.9491 Q1646.7139,452.6678 1646.0889,452.6678 Q1644.7452,452.6678 1644.0577,453.7459 Q1643.3702,454.8084 1643.3702,456.9022 Q1643.3702,458.9959 1644.0577,460.0741 Q1644.7452,461.1366 1646.0889,461.1366 Q1646.7139,461.1366 1647.3077,460.8709 Q1647.9014,460.5897 1648.5264,460.0116 L1648.5264,462.7303 Z " fill="#000000"/><text fill="#000000" font-family="sans-serif" font-size="12" font-style="italic" lengthAdjust="spacing" textLength="64.4824" x="1680.4546" y="453.0955">&#171;external&#187;</text><text fill="#000000" font-family="sans-serif" font-size="14" lengthAdjust="spacing" textLength="93.2764" x="1666.0577" y="468.9207">UserManager</text><line style="stroke:#181818;stroke-width:0.5;" x1="1524.69" x2="1868.2017" y1="477.2225" y2="477.2225"/><line style="stroke:#181818;stroke-width:0.5;" x1="1524.69" x2="1868.2017" y1="485.2225" y2="485.2225"/><text fill="#000000" font-family="sans-serif" font-size="14" lengthAdjust="spacing" textLength="333.5117" x="1529.69" y="502.2176">+FindByEmailAsync(email: string): IdentityUser</text><text fill="#000000" font-family="sans-serif" font-size="14" lengthAdjust="spacing" textLength="292.6533" x="1529.69" y="518.5145">+GetRolesAsync(user: IdentityUser): Role</text></g><!--class SignInResult--><g class="entity" data-qualified-name="SignInResult" data-source-line="73" id="ent0014"><rect fill="#F1F1F1" height="72.5625" rx="2.5" ry="2.5" style="stroke:#181818;stroke-width:0.5;" width="139.5723" x="1697.66" y="56.4569"/><ellipse cx="1721.7264" cy="76.5897" fill="#ADD1B2" rx="11" ry="11" style="stroke:#181818;stroke-width:1;"/><path d="M1724.6951,82.2303 Q1724.117,82.5272 1723.4764,82.6678 Q1722.8357,82.8241 1722.1326,82.8241 Q1719.6326,82.8241 1718.3045,81.1834 Q1716.992,79.5272 1716.992,76.4022 Q1716.992,73.2772 1718.3045,71.6209 Q1719.6326,69.9647 1722.1326,69.9647 Q1722.8357,69.9647 1723.4764,70.1209 Q1724.1326,70.2772 1724.6951,70.5741 L1724.6951,73.2928 Q1724.0701,72.7147 1723.4764,72.4491 Q1722.8826,72.1678 1722.2576,72.1678 Q1720.9139,72.1678 1720.2264,73.2459 Q1719.5389,74.3084 1719.5389,76.4022 Q1719.5389,78.4959 1720.2264,79.5741 Q1720.9139,80.6366 1722.2576,80.6366 Q1722.8826,80.6366 1723.4764,80.3709 Q1724.0701,80.0897 1724.6951,79.5116 L1724.6951,82.2303 Z " fill="#000000"/><text fill="#000000" font-family="sans-serif" font-size="12" font-style="italic" lengthAdjust="spacing" textLength="64.4824" x="1749.2123" y="72.5955">&#171;external&#187;</text><text fill="#000000" font-family="sans-serif" font-size="14" lengthAdjust="spacing" textLength="87.4248" x="1737.7411" y="88.4207">SignInResult</text><line style="stroke:#181818;stroke-width:0.5;" x1="1698.66" x2="1836.2323" y1="96.7225" y2="96.7225"/><text fill="#000000" font-family="sans-serif" font-size="14" lengthAdjust="spacing" textLength="127.5723" x="1703.66" y="113.7176">+Succeeded: bool</text><line style="stroke:#181818;stroke-width:0.5;" x1="1698.66" x2="1836.2323" y1="121.0194" y2="121.0194"/></g><!--class IdentityUser--><g class="entity" data-qualified-name="IdentityUser" data-source-line="78" id="ent0015"><rect fill="#F1F1F1" height="96.8906" rx="2.5" ry="2.5" style="stroke:#181818;stroke-width:0.5;" width="117.5654" x="2602.67" y="238.6169"/><ellipse cx="2617.67" cy="254.6169" fill="#ADD1B2" rx="11" ry="11" style="stroke:#181818;stroke-width:1;"/><path d="M2620.6388,260.2575 Q2620.0606,260.5544 2619.42,260.695 Q2618.7794,260.8513 2618.0763,260.8513 Q2615.5763,260.8513 2614.2481,259.2106 Q2612.9356,257.5544 2612.9356,254.4294 Q2612.9356,251.3044 2614.2481,249.6481 Q2615.5763,247.9919 2618.0763,247.9919 Q2618.7794,247.9919 2619.42,248.1481 Q2620.0763,248.3044 2620.6388,248.6013 L2620.6388,251.32 Q2620.0138,250.7419 2619.42,250.4763 Q2618.8263,250.195 2618.2013,250.195 Q2616.8575,250.195 2616.17,251.2731 Q2615.4825,252.3356 2615.4825,254.4294 Q2615.4825,256.5231 2616.17,257.6013 Q2616.8575,258.6638 2618.2013,258.6638 Q2618.8263,258.6638 2619.42,258.3981 Q2620.0138,258.1169 2620.6388,257.5388 L2620.6388,260.2575 Z " fill="#000000"/><text fill="#000000" font-family="sans-serif" font-size="14" lengthAdjust="spacing" textLength="85.5654" x="2631.67" y="259.4636">IdentityUser</text><line style="stroke:#181818;stroke-width:0.5;" x1="2603.67" x2="2719.2354" y1="270.6169" y2="270.6169"/><text fill="#000000" font-family="sans-serif" font-size="14" lengthAdjust="spacing" textLength="74.1016" x="2608.67" y="287.612">+Id: string</text><text fill="#000000" font-family="sans-serif" font-size="14" lengthAdjust="spacing" textLength="99.9277" x="2608.67" y="303.9089">+Email: string</text><text fill="#000000" font-family="sans-serif" font-size="14" lengthAdjust="spacing" textLength="82.4893" x="2608.67" y="320.2057">+Role: Role</text><line style="stroke:#181818;stroke-width:0.5;" x1="2603.67" x2="2719.2354" y1="327.5075" y2="327.5075"/></g><!--class Employee--><g class="entity" data-qualified-name="Employee" data-source-line="84" id="ent0016"><rect fill="#F1F1F1" height="80.5938" rx="2.5" ry="2.5" style="stroke:#181818;stroke-width:0.5;" width="133.502" x="2594.7" y="52.4469"/><ellipse cx="2624.1743" cy="68.4469" fill="#ADD1B2" rx="11" ry="11" style="stroke:#181818;stroke-width:1;"/><path d="M2627.143,74.0875 Q2626.5649,74.3844 2625.9243,74.525 Q2625.2836,74.6812 2624.5805,74.6812 Q2622.0805,74.6812 2620.7524,73.0406 Q2619.4399,71.3844 2619.4399,68.2594 Q2619.4399,65.1344 2620.7524,63.4781 Q2622.0805,61.8219 2624.5805,61.8219 Q2625.2836,61.8219 2625.9243,61.9781 Q2626.5805,62.1344 2627.143,62.4312 L2627.143,65.15 Q2626.518,64.5719 2625.9243,64.3062 Q2625.3305,64.025 2624.7055,64.025 Q2623.3618,64.025 2622.6743,65.1031 Q2621.9868,66.1656 2621.9868,68.2594 Q2621.9868,70.3531 2622.6743,71.4312 Q2623.3618,72.4937 2624.7055,72.4937 Q2625.3305,72.4937 2625.9243,72.2281 Q2626.518,71.9469 2627.143,71.3687 L2627.143,74.0875 Z " fill="#000000"/><text fill="#000000" font-family="sans-serif" font-size="14" lengthAdjust="spacing" textLength="69.3369" x="2641.3908" y="73.2936">Employee</text><line style="stroke:#181818;stroke-width:0.5;" x1="2595.7" x2="2727.202" y1="84.4469" y2="84.4469"/><text fill="#000000" font-family="sans-serif" font-size="14" lengthAdjust="spacing" textLength="121.502" x="2600.7" y="101.442">+EmployeeId: int</text><text fill="#000000" font-family="sans-serif" font-size="14" lengthAdjust="spacing" textLength="102.3887" x="2600.7" y="117.7389">+Name: string</text><line style="stroke:#181818;stroke-width:0.5;" x1="2595.7" x2="2727.202" y1="125.0406" y2="125.0406"/></g><!--class Role--><g class="entity" data-qualified-name="Role" data-source-line="89" id="ent0017"><rect fill="#F1F1F1" height="96.8906" rx="2.5" ry="2.5" style="stroke:#181818;stroke-width:0.5;" width="114.3887" x="2592.25" y="432.9369"/><ellipse cx="2630.4667" cy="448.9369" fill="#ADD1B2" rx="11" ry="11" style="stroke:#181818;stroke-width:1;"/><path d="M2633.4355,454.5775 Q2632.8574,454.8744 2632.2167,455.015 Q2631.5761,455.1713 2630.873,455.1713 Q2628.373,455.1713 2627.0449,453.5306 Q2625.7324,451.8744 2625.7324,448.7494 Q2625.7324,445.6244 2627.0449,443.9681 Q2628.373,442.3119 2630.873,442.3119 Q2631.5761,442.3119 2632.2167,442.4681 Q2632.873,442.6244 2633.4355,442.9213 L2633.4355,445.64 Q2632.8105,445.0619 2632.2167,444.7963 Q2631.623,444.515 2630.998,444.515 Q2629.6542,444.515 2628.9667,445.5931 Q2628.2792,446.6556 2628.2792,448.7494 Q2628.2792,450.8431 2628.9667,451.9213 Q2629.6542,452.9838 2630.998,452.9838 Q2631.623,452.9838 2632.2167,452.7181 Q2632.8105,452.4369 2633.4355,451.8588 L2633.4355,454.5775 Z " fill="#000000"/><text fill="#000000" font-family="sans-serif" font-size="14" lengthAdjust="spacing" textLength="30.7959" x="2649.626" y="453.7836">Role</text><line style="stroke:#181818;stroke-width:0.5;" x1="2593.25" x2="2705.6387" y1="464.9369" y2="464.9369"/><text fill="#000000" font-family="sans-serif" font-size="14" lengthAdjust="spacing" textLength="82.9609" x="2598.25" y="481.932">+RoleId: int</text><text fill="#000000" font-family="sans-serif" font-size="14" lengthAdjust="spacing" textLength="102.3887" x="2598.25" y="498.2289">+Name: string</text><text fill="#000000" font-family="sans-serif" font-size="14" lengthAdjust="spacing" textLength="76.3506" x="2598.25" y="514.5257">+Level: int</text><line style="stroke:#181818;stroke-width:0.5;" x1="2593.25" x2="2705.6387" y1="521.8275" y2="521.8275"/></g><!--class AuthResult--><g class="entity" data-qualified-name="AuthResult" data-source-line="95" id="ent0018"><rect fill="#F1F1F1" height="96.8906" rx="2.5" ry="2.5" style="stroke:#181818;stroke-width:0.5;" width="154.9326" x="2412.98" y="238.6169"/><ellipse cx="2448.785" cy="254.6169" fill="#ADD1B2" rx="11" ry="11" style="stroke:#181818;stroke-width:1;"/><path d="M2451.7538,260.2575 Q2451.1757,260.5544 2450.535,260.695 Q2449.8944,260.8513 2449.1913,260.8513 Q2446.6913,260.8513 2445.3632,259.2106 Q2444.0507,257.5544 2444.0507,254.4294 Q2444.0507,251.3044 2445.3632,249.6481 Q2446.6913,247.9919 2449.1913,247.9919 Q2449.8944,247.9919 2450.535,248.1481 Q2451.1913,248.3044 2451.7538,248.6013 L2451.7538,251.32 Q2451.1288,250.7419 2450.535,250.4763 Q2449.9413,250.195 2449.3163,250.195 Q2447.9725,250.195 2447.285,251.2731 Q2446.5975,252.3356 2446.5975,254.4294 Q2446.5975,256.5231 2447.285,257.6013 Q2447.9725,258.6638 2449.3163,258.6638 Q2449.9413,258.6638 2450.535,258.3981 Q2451.1288,258.1169 2451.7538,257.5388 L2451.7538,260.2575 Z " fill="#000000"/><text fill="#000000" font-family="sans-serif" font-size="14" lengthAdjust="spacing" textLength="76.6992" x="2467.4084" y="259.4636">AuthResult</text><line style="stroke:#181818;stroke-width:0.5;" x1="2413.98" x2="2566.9126" y1="270.6169" y2="270.6169"/><text fill="#000000" font-family="sans-serif" font-size="14" lengthAdjust="spacing" textLength="142.9326" x="2418.98" y="287.612">+Status: AuthStatus</text><text fill="#000000" font-family="sans-serif" font-size="14" lengthAdjust="spacing" textLength="122.4453" x="2418.98" y="303.9089">+Message: string</text><text fill="#000000" font-family="sans-serif" font-size="14" lengthAdjust="spacing" textLength="82.4893" x="2418.98" y="320.2057">+Role: Role</text><line style="stroke:#181818;stroke-width:0.5;" x1="2413.98" x2="2566.9126" y1="327.5075" y2="327.5075"/></g><!--class AuthStatus--><g class="entity" data-qualified-name="AuthStatus" data-source-line="101" id="ent0019"><rect fill="#F1F1F1" height="96.8906" rx="2.5" ry="2.5" style="stroke:#181818;stroke-width:0.5;" width="109.4238" x="2435.74" y="432.9369"/><ellipse cx="2450.74" cy="448.9369" fill="#EB937F" rx="11" ry="11" style="stroke:#181818;stroke-width:1;"/><path d="M2454.8494,454.9369 L2447.1306,454.9369 L2447.1306,442.5463 L2454.8494,442.5463 L2454.8494,444.7025 L2449.5838,444.7025 L2449.5838,447.3744 L2454.3494,447.3744 L2454.3494,449.5306 L2449.5838,449.5306 L2449.5838,452.7806 L2454.8494,452.7806 L2454.8494,454.9369 Z " fill="#000000"/><text fill="#000000" font-family="sans-serif" font-size="14" lengthAdjust="spacing" textLength="77.4238" x="2464.74" y="453.7836">AuthStatus</text><line style="stroke:#181818;stroke-width:0.5;" x1="2436.74" x2="2544.1638" y1="464.9369" y2="464.9369"/><text fill="#000000" font-family="sans-serif" font-size="14" lengthAdjust="spacing" textLength="56.3555" x="2441.74" y="481.932">Success</text><text fill="#000000" font-family="sans-serif" font-size="14" lengthAdjust="spacing" textLength="61.5303" x="2441.74" y="498.2289">Rejected</text><text fill="#000000" font-family="sans-serif" font-size="14" lengthAdjust="spacing" textLength="49.6563" x="2441.74" y="514.5257">Denied</text><line style="stroke:#181818;stroke-width:0.5;" x1="2436.74" x2="2544.1638" y1="521.8275" y2="521.8275"/></g><!--link LoginView to AuthController--><g class="link" data-entity-1="ent0007" data-entity-2="ent0006" data-link-type="dependency" data-source-line="108" id="lnk20"><path codeLine="108" d="M743.45,141.2769 C743.45,168.1969 743.45,196.0169 743.45,224.1969" fill="none" id="LoginView-to-AuthController" style="stroke:#181818;stroke-width:1;"/><polygon fill="#181818" points="743.45,230.1969,747.45,221.1969,743.45,225.1969,739.45,221.1969,743.45,230.1969" style="stroke:#181818;stroke-width:1;"/><text fill="#000000" font-family="sans-serif" font-size="13" lengthAdjust="spacing" textLength="29.1104" x="744.45" y="184.2538">calls</text></g><!--link AuthController to IAuthService--><g class="link" data-entity-1="ent0006" data-entity-2="ent0002" data-link-type="dependency" data-source-line="110" id="lnk21"><path codeLine="110" d="M751,343.9469 C755.62,378.1069 760.5558,414.591 764.3958,442.981" fill="none" id="AuthController-to-IAuthService" style="stroke:#181818;stroke-width:1;stroke-dasharray:7,7;"/><polygon fill="#181818" points="765.2,448.9269,767.9576,439.4719,764.5298,443.972,760.0298,440.5442,765.2,448.9269" style="stroke:#181818;stroke-width:1;"/></g><!--link AuthController to IStartPageResolver--><g class="link" data-entity-1="ent0006" data-entity-2="ent0003" data-link-type="dependency" data-source-line="111" id="lnk22"><path codeLine="111" d="M645.23,343.9469 C585.2,378.1069 515.835,417.5698 465.935,445.9598" fill="none" id="AuthController-to-IStartPageResolver" style="stroke:#181818;stroke-width:1;stroke-dasharray:7,7;"/><polygon fill="#181818" points="460.72,448.9269,470.5206,447.953,465.0659,446.4543,466.5645,440.9996,460.72,448.9269" style="stroke:#181818;stroke-width:1;"/></g><!--link AuthController to INavigationService--><g class="link" data-entity-1="ent0006" data-entity-2="ent0004" data-link-type="dependency" data-source-line="112" id="lnk23"><path codeLine="112" d="M599.56,344.0769 C587.41,348.2769 575.25,352.2869 563.45,355.9369 C425.34,398.6269 385.73,390.8069 247.45,432.9369 C231.93,437.6669 221.1986,441.2036 205.5086,446.8236" fill="none" id="AuthController-to-INavigationService" style="stroke:#181818;stroke-width:1;stroke-dasharray:7,7;"/><polygon fill="#181818" points="199.86,448.8469,209.6817,449.5777,204.5671,447.1608,206.984,442.0463,199.86,448.8469" style="stroke:#181818;stroke-width:1;"/></g><!--link AuthService to IAuthService--><g class="link" data-entity-1="ent0008" data-entity-2="ent0002" data-link-type="extension" data-source-line="114" id="lnk24"><path codeLine="114" d="M1099.5,327.7969 C1021.94,363.6469 925.6783,408.153 854.1083,441.243" fill="none" id="AuthService-to-IAuthService" style="stroke:#181818;stroke-width:1;stroke-dasharray:7,7;"/><polygon fill="none" points="837.77,448.7969,856.6262,446.6891,851.5903,435.7969,837.77,448.7969" style="stroke:#181818;stroke-width:1;"/></g><!--link StartPageResolver to IStartPageResolver--><g class="link" data-entity-1="ent0009" data-entity-2="ent0003" data-link-type="extension" data-source-line="115" id="lnk25"><path codeLine="115" d="M405.45,319.3869 C405.45,355.0469 405.45,394.9669 405.45,430.7469" fill="none" id="StartPageResolver-to-IStartPageResolver" style="stroke:#181818;stroke-width:1;stroke-dasharray:7,7;"/><polygon fill="none" points="405.45,448.7469,411.45,430.7469,399.45,430.7469,405.45,448.7469" style="stroke:#181818;stroke-width:1;"/></g><!--link NavigationService to INavigationService--><g class="link" data-entity-1="ent0010" data-entity-2="ent0004" data-link-type="extension" data-source-line="116" id="lnk26"><path codeLine="116" d="M118.45,319.3869 C118.45,355.0469 118.45,394.9669 118.45,430.7469" fill="none" id="NavigationService-to-INavigationService" style="stroke:#181818;stroke-width:1;stroke-dasharray:7,7;"/><polygon fill="none" points="118.45,448.7469,124.45,430.7469,112.45,430.7469,118.45,448.7469" style="stroke:#181818;stroke-width:1;"/></g><!--link AuthService to IIdentityGateway--><g class="link" data-entity-1="ent0008" data-entity-2="ent0005" data-link-type="dependency" data-source-line="118" id="lnk27"><path codeLine="118" d="M1196.71,327.4469 C1205.42,357.8869 1215.8486,394.3886 1225.1186,426.7686" fill="none" id="AuthService-to-IIdentityGateway" style="stroke:#181818;stroke-width:1;stroke-dasharray:7,7;"/><polygon fill="#181818" points="1226.77,432.5369,1228.1384,422.7835,1225.3938,427.73,1220.4474,424.9854,1226.77,432.5369" style="stroke:#181818;stroke-width:1;"/></g><!--link IdentityGateway to IIdentityGateway--><g class="link" data-entity-1="ent0011" data-entity-2="ent0005" data-link-type="extension" data-source-line="119" id="lnk28"><path codeLine="119" d="M1534.4,356.4069 C1474.75,381.5669 1425.105,402.5012 1370.625,425.4812" fill="none" id="IdentityGateway-to-IIdentityGateway" style="stroke:#181818;stroke-width:1;stroke-dasharray:7,7;"/><polygon fill="none" points="1354.04,432.4769,1372.9568,431.0096,1368.2931,419.9529,1354.04,432.4769" style="stroke:#181818;stroke-width:1;"/></g><!--link IdentityGateway to SignInManager--><g class="link" data-entity-1="ent0011" data-entity-2="ent0012" data-link-type="dependency" data-source-line="121" id="lnk29"><path codeLine="121" d="M1858.5,356.4069 C1929.15,386.2069 2003.5214,417.5757 2062.1714,442.3057" fill="none" id="IdentityGateway-to-SignInManager" style="stroke:#181818;stroke-width:1;"/><polygon fill="#181818" points="2067.7,444.6369,2060.9612,437.4544,2063.0928,442.6942,2057.853,444.8259,2067.7,444.6369" style="stroke:#181818;stroke-width:1;"/></g><!--link IdentityGateway to UserManager--><g class="link" data-entity-1="ent0011" data-entity-2="ent0013" data-link-type="dependency" data-source-line="122" id="lnk30"><path codeLine="122" d="M1696.45,356.4069 C1696.45,383.0769 1696.45,406.8669 1696.45,430.5569" fill="none" id="IdentityGateway-to-UserManager" style="stroke:#181818;stroke-width:1;"/><polygon fill="#181818" points="1696.45,436.5569,1700.45,427.5569,1696.45,431.5569,1692.45,427.5569,1696.45,436.5569" style="stroke:#181818;stroke-width:1;"/></g><!--link AuthResult to AuthStatus--><g class="link" data-entity-1="ent0018" data-entity-2="ent0019" data-link-type="dependency" data-source-line="124" id="lnk31"><path codeLine="124" d="M2490.45,335.5969 C2490.45,365.1869 2490.45,397.1069 2490.45,426.7269" fill="none" id="AuthResult-to-AuthStatus" style="stroke:#181818;stroke-width:1;"/><polygon fill="#181818" points="2490.45,432.7269,2494.45,423.7269,2490.45,427.7269,2486.45,423.7269,2490.45,432.7269" style="stroke:#181818;stroke-width:1;"/></g><!--link AuthResult to Role--><g class="link" data-entity-1="ent0018" data-entity-2="ent0017" data-link-type="dependency" data-source-line="125" id="lnk32"><path codeLine="125" d="M2529.75,335.5969 C2554.21,365.1869 2581.7477,398.482 2606.2277,428.102" fill="none" id="AuthResult-to-Role" style="stroke:#181818;stroke-width:1;"/><polygon fill="#181818" points="2610.05,432.7269,2607.3998,423.2413,2606.8647,428.8728,2601.2332,428.3377,2610.05,432.7269" style="stroke:#181818;stroke-width:1;"/></g><!--link Employee to IdentityUser--><g class="link" data-entity-1="ent0016" data-entity-2="ent0015" data-link-type="association" data-source-line="127" id="lnk33"><path codeLine="127" d="M2661.45,133.1269 C2661.45,163.5669 2661.45,205.8369 2661.45,238.2169" fill="none" id="Employee-IdentityUser" style="stroke:#181818;stroke-width:1;"/><text fill="#000000" font-family="sans-serif" font-size="13" lengthAdjust="spacing" textLength="8.271" x="2652.8098" y="153.1354">1</text><text fill="#000000" font-family="sans-serif" font-size="13" lengthAdjust="spacing" textLength="8.271" x="2652.9303" y="227.7213">1</text></g><!--link IdentityUser to Role--><g class="link" data-entity-1="ent0015" data-entity-2="ent0017" data-link-type="association" data-source-line="128" id="lnk34"><path codeLine="128" d="M2658.48,335.5969 C2656.64,365.1869 2654.27,403.1069 2652.42,432.7269" fill="none" id="IdentityUser-Role" style="stroke:#181818;stroke-width:1;"/><text fill="#000000" font-family="sans-serif" font-size="13" lengthAdjust="spacing" textLength="57.8652" x="2656.45" y="399.0038">assigned</text><text fill="#000000" font-family="sans-serif" font-size="13" lengthAdjust="spacing" textLength="23.0356" x="2633.4473" y="355.553">0..*</text><text fill="#000000" font-family="sans-serif" font-size="13" lengthAdjust="spacing" textLength="8.271" x="2644.295" y="421.9063">1</text></g><?plantuml-src rLPBJnin4BxlhnXn8IbD2jSLZKH9YYALWXBHkxCx92wElRAzITF7V-_Otjti2nNHNie1rfxnF3v_tnZBhK2ONazX10_NvnVmIQs1onG6MWc1AsPGensITJg7QoMjPearKMIUkCoOPbj813FcobhDLxd5UQBaadz7E8-YKtZlVc0kBUf7bg210KL9oYZ3O8zuQOVvLMutIzGxJeiV4S3Pag_bN0vmoxY8mL0MkNuB6QNSAvsMEyCOtCa5cbpOw5TK3xcqJDjxjaQoAh537G8NAszTAAhSDOmnBEZti8pR2lMPxVYQMKujrciijbq4YbEhQQTuwaASmbtcJZ41X14XEKe4CXd3NhCCvYbAo-q17WbEfBQUO8KRTmTCGfMzNaTvueQIxjaXL75VO18Gkp87cRm0jk1T04THFbBU3uUPEzSJWWwKkH-86Ex03Le7MN3EQRFfCWo81XG27JoB7BaqdC4NZlk21fv8_Xvh7gwr4Jko8cvmn1brSQrnprKxkwmkBUwvGTS2KPw_X6BbTOP2_IbVleV_JlgDQy6J9qnV6iqnVAFsCwsL7cpH62h-6Pzbdf22pA31gu3eLPPHMjyMc8APRKphZ1tnueRY3fV-GdDbDSiyovIsv49ItsPAKWBJgETl9HcYl5wDvLWYmP4rJsok4LZACb8O39meJOygXuqUsXgylEIDU9D9WDfuC6-Pf7PrgRTYwUnECfNruRZuhoJTCyBOolWfJzT3On-_4RGq_veODi0W14kl0hj_qN_5bXgqFPbUYv5v0KZrNaDLFGLuTMEArCXAAL47Twge5Wdlu5QbA7f9w3A6EFCA2RUQrRlm4gi4TQnijis4Ec0XdtBb0j6J4nIrnQxyN912j_JrdBiRhxX34QpLuUFaADgtpEOcJ9JmxNPlcmEnsm3AV5ixusCLSvA-5lWL4ujkWavHScoeVu72pmwpuLavdOuZVJIQj5-Y618c1FthqzeVZoVDDwdFtdsP-howhrDK7ztZySzMgkuW3JxTTDrX6Jp_c7BIVIBQeoz4Qdjrt1ocpV7Nvr4VWL6D9kMD5EneMJmXeeh99nSdjEt_D8JRqCl9-NZyflBpT8w1o4abOleR?></g></svg>