<?plantuml 1.2026.2beta3?><svg xmlns="http://www.w3.org/2000/svg" xmlns:xlink="http://www.w3.org/1999/xlink" contentStyleType="text/css" data-diagram-type="SEQUENCE" height="552px" preserveAspectRatio="none" style="width:335px;height:552px;background:#FFFFFF;" version="1.1" viewBox="0 0 335 552" width="335px" zoomAndPan="magnify"><title>SSD - UC01 Log ind (rollebaseret)</title><defs/><g><text fill="#000000" font-family="sans-serif" font-size="14" font-weight="bold" lengthAdjust="spacing" textLength="265.2412" x="31.3169" y="27.9951">SSD - UC01 Log ind (rollebaseret)</text><g class="participant-lifeline" data-entity-uid="part1" data-qualified-name="Personale" id="part1-lifeline"><g><title>Personale</title><rect fill="#000000" fill-opacity="0.00000" height="353.3281" width="8" x="38.313" y="118.5938"/><line style="stroke:#181818;stroke-width:0.5;stroke-dasharray:5,5;" x1="42" x2="42" y1="118.5938" y2="471.9219"/></g></g><g class="participant-lifeline" data-entity-uid="part2" data-qualified-name="System" id="part2-lifeline"><g><title>VIGOR</title><rect fill="#000000" fill-opacity="0.00000" height="353.3281" width="8" x="287.166" y="118.5938"/><line style="stroke:#181818;stroke-width:0.5;stroke-dasharray:5,5;" x1="290.5151" x2="290.5151" y1="118.5938" y2="471.9219"/></g></g><g class="participant participant-head" data-entity-uid="part1" data-qualified-name="Personale" id="part1-head"><text fill="#000000" font-family="sans-serif" font-size="14" lengthAdjust="spacing" textLength="68.626" x="5" y="115.292">Personale</text><ellipse cx="42.313" cy="50.7969" fill="#E2E2F0" rx="8" ry="8" style="stroke:#181818;stroke-width:0.5;"/><path d="M42.313,58.7969 L42.313,85.7969 M29.313,66.7969 L55.313,66.7969 M42.313,85.7969 L29.313,100.7969 M42.313,85.7969 L55.313,100.7969" fill="none" style="stroke:#181818;stroke-width:0.5;"/></g><g class="participant participant-tail" data-entity-uid="part1" data-qualified-name="Personale" id="part1-tail"><text fill="#000000" font-family="sans-serif" font-size="14" lengthAdjust="spacing" textLength="68.626" x="5" y="483.917">Personale</text><ellipse cx="42.313" cy="495.7188" fill="#E2E2F0" rx="8" ry="8" style="stroke:#181818;stroke-width:0.5;"/><path d="M42.313,503.7188 L42.313,530.7188 M29.313,511.7188 L55.313,511.7188 M42.313,530.7188 L29.313,545.7188 M42.313,530.7188 L55.313,545.7188" fill="none" style="stroke:#181818;stroke-width:0.5;"/></g><g class="participant participant-head" data-entity-uid="part2" data-qualified-name="System" id="part2-head"><rect fill="#E2E2F0" height="30.2969" rx="2.5" ry="2.5" style="stroke:#181818;stroke-width:0.5;" width="59.3018" x="261.5151" y="87.2969"/><text fill="#000000" font-family="sans-serif" font-size="14" lengthAdjust="spacing" textLength="45.3018" x="268.5151" y="107.292">VIGOR</text></g><g class="participant participant-tail" data-entity-uid="part2" data-qualified-name="System" id="part2-tail"><rect fill="#E2E2F0" height="30.2969" rx="2.5" ry="2.5" style="stroke:#181818;stroke-width:0.5;" width="59.3018" x="261.5151" y="470.9219"/><text fill="#000000" font-family="sans-serif" font-size="14" lengthAdjust="spacing" textLength="45.3018" x="268.5151" y="490.917">VIGOR</text></g><rect fill="#EEEEEE" height="3" style="stroke:#EEEEEE;stroke-width:1;" width="328.875" x="0" y="149.1602"/><line style="stroke:#000000;stroke-width:1;" x1="0" x2="328.875" y1="149.1602" y2="149.1602"/><line style="stroke:#000000;stroke-width:1;" x1="0" x2="328.875" y1="152.1602" y2="152.1602"/><rect fill="#EEEEEE" height="23.1328" style="stroke:#000000;stroke-width:2;" width="185.0313" x="71.9219" y="138.5938"/><text fill="#000000" font-family="sans-serif" font-size="13" font-weight="bold" lengthAdjust="spacing" textLength="166.5054" x="77.9219" y="154.6606">Main Success Scenario</text><g class="message" data-entity-1="part1" data-entity-2="part2" id="msg1"><polygon fill="#181818" points="279.166,188.8594,289.166,192.8594,279.166,196.8594,283.166,192.8594" style="stroke:#181818;stroke-width:1;"/><line style="stroke:#181818;stroke-width:1;" x1="42.313" x2="285.166" y1="192.8594" y2="192.8594"/><text fill="#000000" font-family="sans-serif" font-size="13" lengthAdjust="spacing" textLength="224.853" x="49.313" y="187.7935">enterCredentials(email, password)</text></g><g class="message" data-entity-1="part2" data-entity-2="part1" id="msg2"><polygon fill="#181818" points="53.313,217.9922,43.313,221.9922,53.313,225.9922,49.313,221.9922" style="stroke:#181818;stroke-width:1;"/><line style="stroke:#181818;stroke-width:1;stroke-dasharray:2,2;" x1="47.313" x2="290.166" y1="221.9922" y2="221.9922"/><text fill="#000000" font-family="sans-serif" font-size="13" lengthAdjust="spacing" textLength="102.5972" x="59.313" y="216.9263">loginAccepted()</text></g><g class="message" data-entity-1="part2" data-entity-2="part1" id="msg3"><polygon fill="#181818" points="53.313,247.125,43.313,251.125,53.313,255.125,49.313,251.125" style="stroke:#181818;stroke-width:1;"/><line style="stroke:#181818;stroke-width:1;stroke-dasharray:2,2;" x1="47.313" x2="290.166" y1="251.125" y2="251.125"/><text fill="#000000" font-family="sans-serif" font-size="13" lengthAdjust="spacing" textLength="171.5835" x="59.313" y="246.0591">navigateToStartPage(role)</text></g><rect fill="#EEEEEE" height="3" style="stroke:#EEEEEE;stroke-width:1;" width="328.875" x="0" y="279.6914"/><line style="stroke:#000000;stroke-width:1;" x1="0" x2="328.875" y1="279.6914" y2="279.6914"/><line style="stroke:#000000;stroke-width:1;" x1="0" x2="328.875" y1="282.6914" y2="282.6914"/><rect fill="#EEEEEE" height="23.1328" style="stroke:#000000;stroke-width:2;" width="304.875" x="12" y="269.125"/><text fill="#000000" font-family="sans-serif" font-size="13" font-weight="bold" lengthAdjust="spacing" textLength="286.3491" x="18" y="285.1919">Alternative Flow - Ugyldige credentials</text><g class="message" data-entity-1="part1" data-entity-2="part2" id="msg4"><polygon fill="#181818" points="279.166,319.3906,289.166,323.3906,279.166,327.3906,283.166,323.3906" style="stroke:#181818;stroke-width:1;"/><line style="stroke:#181818;stroke-width:1;" x1="42.313" x2="285.166" y1="323.3906" y2="323.3906"/><text fill="#000000" font-family="sans-serif" font-size="13" lengthAdjust="spacing" textLength="224.853" x="49.313" y="318.3247">enterCredentials(email, password)</text></g><g class="message" data-entity-1="part2" data-entity-2="part1" id="msg5"><polygon fill="#181818" points="53.313,348.5234,43.313,352.5234,53.313,356.5234,49.313,352.5234" style="stroke:#181818;stroke-width:1;"/><line style="stroke:#181818;stroke-width:1;stroke-dasharray:2,2;" x1="47.313" x2="290.166" y1="352.5234" y2="352.5234"/><text fill="#000000" font-family="sans-serif" font-size="13" lengthAdjust="spacing" textLength="187.9097" x="59.313" y="347.4575">loginRejected(errorMessage)</text></g><rect fill="#EEEEEE" height="3" style="stroke:#EEEEEE;stroke-width:1;" width="328.875" x="0" y="381.0898"/><line style="stroke:#000000;stroke-width:1;" x1="0" x2="328.875" y1="381.0898" y2="381.0898"/><line style="stroke:#000000;stroke-width:1;" x1="0" x2="328.875" y1="384.0898" y2="384.0898"/><rect fill="#EEEEEE" height="23.1328" style="stroke:#000000;stroke-width:2;" width="272.2417" x="28.3167" y="370.5234"/><text fill="#000000" font-family="sans-serif" font-size="13" font-weight="bold" lengthAdjust="spacing" textLength="253.7158" x="34.3167" y="386.5903">Alternative Flow - Manglende rolle</text><g class="message" data-entity-1="part1" data-entity-2="part2" id="msg6"><polygon fill="#181818" points="279.166,420.7891,289.166,424.7891,279.166,428.7891,283.166,424.7891" style="stroke:#181818;stroke-width:1;"/><line style="stroke:#181818;stroke-width:1;" x1="42.313" x2="285.166" y1="424.7891" y2="424.7891"/><text fill="#000000" font-family="sans-serif" font-size="13" lengthAdjust="spacing" textLength="224.853" x="49.313" y="419.7231">enterCredentials(email, password)</text></g><g class="message" data-entity-1="part2" data-entity-2="part1" id="msg7"><polygon fill="#181818" points="53.313,449.9219,43.313,453.9219,53.313,457.9219,49.313,453.9219" style="stroke:#181818;stroke-width:1;"/><line style="stroke:#181818;stroke-width:1;stroke-dasharray:2,2;" x1="47.313" x2="290.166" y1="453.9219" y2="453.9219"/><text fill="#000000" font-family="sans-serif" font-size="13" lengthAdjust="spacing" textLength="158.4819" x="59.313" y="448.856">accessDenied(message)</text></g><?plantuml-src jT5DQyCm30RWkt-5w2c11RPh8OFIqZ5OM6cstJNxnMWuTh2zblxxEI6ifnvxCqOVZwGisO7wVaSDVMuVd-WjM19lg8h1ENnpGaIkbMATGwG3OWgU7TJ8COkMaNscrTVho_jnHPoelwICGQcsfOx5K_-hDLBvr_0S9L3RAlLVXPhd9OFM19yHjn6cF8HTgZ2mk0SQEQLpYAPMIsXJigubrkI25RyfVSOCKzqCytmIonaVeSy5Vs2BQKZKitRZIdVFMKwWlGldQH_suenOaBwYxkO_uWTwyYF64Bkoi-AxIUlOMmTlGFEPxg7Y-N0xU2ceOV7y0G00?></g></svg>