<svg xmlns="http://www.w3.org/2000/svg" xmlns:xlink="http://www.w3.org/1999/xlink" contentStyleType="text/css" data-diagram-type="SEQUENCE" height="626px" preserveAspectRatio="none" style="width:360px;height:626px;background:#FFFFFF;" version="1.1" viewBox="0 0 360 626" width="360px" zoomAndPan="magnify"><?plantuml 1.2026.3beta4?><defs/><g><g class="title" data-source-line="1"><text fill="#000000" font-family="sans-serif" font-size="14" font-weight="700" lengthAdjust="spacing" textLength="265.2412" x="43.9519" y="27.9951">SSD - UC01 Log ind (rollebaseret)</text></g><g class="participant-lifeline" data-entity-uid="part1" data-qualified-name="Personale" id="part1-lifeline"><g><title>Personale</title><rect fill="#000000" fill-opacity="0.00000" height="425.5938" width="8" x="38.313" y="118.5938"/><line style="stroke:#181818;stroke-width:0.5;stroke-dasharray:5,5;" x1="42" x2="42" y1="118.5938" y2="544.1875"/></g></g><g class="participant-lifeline" data-entity-uid="part2" data-qualified-name="System" id="part2-lifeline"><g><title>VIGOR System</title><rect fill="#000000" fill-opacity="0.00000" height="425.5938" width="8" x="287.166" y="118.5938"/><line style="stroke:#181818;stroke-width:0.5;stroke-dasharray:5,5;" x1="290.187" x2="290.187" y1="118.5938" y2="544.1875"/></g></g><g class="participant participant-head" data-entity-uid="part1" data-qualified-name="Personale" id="part1-head"><text fill="#000000" font-family="sans-serif" font-size="14" lengthAdjust="spacing" textLength="68.626" x="5" y="115.292">Personale</text><ellipse cx="42.313" cy="50.7969" fill="#E2E2F0" rx="8" ry="8" style="stroke:#181818;stroke-width:0.5;"/><path d="M42.313,58.7969 L42.313,85.7969 M29.313,66.7969 L55.313,66.7969 M42.313,85.7969 L29.313,100.7969 M42.313,85.7969 L55.313,100.7969" fill="none" style="stroke:#181818;stroke-width:0.5;"/></g><g class="participant participant-tail" data-entity-uid="part1" data-qualified-name="Personale" id="part1-tail"><text fill="#000000" font-family="sans-serif" font-size="14" lengthAdjust="spacing" textLength="68.626" x="5" y="556.1826">Personale</text><ellipse cx="42.313" cy="567.9844" fill="#E2E2F0" rx="8" ry="8" style="stroke:#181818;stroke-width:0.5;"/><path d="M42.313,575.9844 L42.313,602.9844 M29.313,583.9844 L55.313,583.9844 M42.313,602.9844 L29.313,617.9844 M42.313,602.9844 L55.313,617.9844" fill="none" style="stroke:#181818;stroke-width:0.5;"/></g><g class="participant participant-head" data-entity-uid="part2" data-qualified-name="System" id="part2-head"><rect fill="#E2E2F0" height="30.2969" rx="2.5" ry="2.5" style="stroke:#181818;stroke-width:0.5;" width="115.958" x="233.187" y="87.2969"/><text fill="#000000" font-family="sans-serif" font-size="14" lengthAdjust="spacing" textLength="101.958" x="240.187" y="107.292">VIGOR System</text></g><g class="participant participant-tail" data-entity-uid="part2" data-qualified-name="System" id="part2-tail"><rect fill="#E2E2F0" height="30.2969" rx="2.5" ry="2.5" style="stroke:#181818;stroke-width:0.5;" width="115.958" x="233.187" y="543.1875"/><text fill="#000000" font-family="sans-serif" font-size="14" lengthAdjust="spacing" textLength="101.958" x="240.187" y="563.1826">VIGOR System</text></g><rect fill="#EEEEEE" height="3" style="stroke:#EEEEEE;stroke-width:1;" width="354.145" x="0" y="149.1602"/><line style="stroke:#000000;stroke-width:1;" x1="0" x2="354.145" y1="149.1602" y2="149.1602"/><line style="stroke:#000000;stroke-width:1;" x1="0" x2="354.145" y1="152.1602" y2="152.1602"/><rect fill="#EEEEEE" height="23.1328" style="stroke:#000000;stroke-width:2;" width="185.0313" x="84.5569" y="138.5938"/><text fill="#000000" font-family="sans-serif" font-size="13" font-weight="700" lengthAdjust="spacing" textLength="166.5054" x="90.5569" y="154.6606">Main Success Scenario</text><g class="message" data-entity-1="part1" data-entity-2="part2" id="msg1"><polygon fill="#181818" points="279.166,188.8594,289.166,192.8594,279.166,196.8594,283.166,192.8594" style="stroke:#181818;stroke-width:1;"/><line style="stroke:#181818;stroke-width:1;" x1="42.313" x2="285.166" y1="192.8594" y2="192.8594"/><text fill="#000000" font-family="sans-serif" font-size="13" lengthAdjust="spacing" textLength="224.853" x="49.313" y="187.7935">enterCredentials(email, password)</text></g><g class="message" data-entity-1="part2" data-entity-2="part1" id="msg2"><polygon fill="#181818" points="53.313,217.9922,43.313,221.9922,53.313,225.9922,49.313,221.9922" style="stroke:#181818;stroke-width:1;"/><line style="stroke:#181818;stroke-width:1;stroke-dasharray:2,2;" x1="47.313" x2="290.166" y1="221.9922" y2="221.9922"/><text fill="#000000" font-family="sans-serif" font-size="13" lengthAdjust="spacing" textLength="146.6753" x="59.313" y="216.9263">navigateToStartPage()</text></g><rect fill="#EEEEEE" height="3" style="stroke:#EEEEEE;stroke-width:1;" width="354.145" x="0" y="250.5586"/><line style="stroke:#000000;stroke-width:1;" x1="0" x2="354.145" y1="250.5586" y2="250.5586"/><line style="stroke:#000000;stroke-width:1;" x1="0" x2="354.145" y1="253.5586" y2="253.5586"/><rect fill="#EEEEEE" height="23.1328" style="stroke:#000000;stroke-width:2;" width="304.875" x="24.635" y="239.9922"/><text fill="#000000" font-family="sans-serif" font-size="13" font-weight="700" lengthAdjust="spacing" textLength="286.3491" x="30.635" y="256.0591">Alternative Flow - Ugyldige credentials</text><g class="message" data-entity-1="part1" data-entity-2="part2" id="msg3"><polygon fill="#181818" points="279.166,290.2578,289.166,294.2578,279.166,298.2578,283.166,294.2578" style="stroke:#181818;stroke-width:1;"/><line style="stroke:#181818;stroke-width:1;" x1="42.313" x2="285.166" y1="294.2578" y2="294.2578"/><text fill="#000000" font-family="sans-serif" font-size="13" lengthAdjust="spacing" textLength="224.853" x="49.313" y="289.1919">enterCredentials(email, password)</text></g><g class="message" data-entity-1="part2" data-entity-2="part1" id="msg4"><polygon fill="#181818" points="53.313,319.3906,43.313,323.3906,53.313,327.3906,49.313,323.3906" style="stroke:#181818;stroke-width:1;"/><line style="stroke:#181818;stroke-width:1;stroke-dasharray:2,2;" x1="47.313" x2="290.166" y1="323.3906" y2="323.3906"/><text fill="#000000" font-family="sans-serif" font-size="13" lengthAdjust="spacing" textLength="200.2051" x="59.313" y="318.3247">showLoginError(errorMessage)</text></g><rect fill="#EEEEEE" height="3" style="stroke:#EEEEEE;stroke-width:1;" width="354.145" x="0" y="351.957"/><line style="stroke:#000000;stroke-width:1;" x1="0" x2="354.145" y1="351.957" y2="351.957"/><line style="stroke:#000000;stroke-width:1;" x1="0" x2="354.145" y1="354.957" y2="354.957"/><rect fill="#EEEEEE" height="23.1328" style="stroke:#000000;stroke-width:2;" width="272.2417" x="40.9517" y="341.3906"/><text fill="#000000" font-family="sans-serif" font-size="13" font-weight="700" lengthAdjust="spacing" textLength="253.7158" x="46.9517" y="357.4575">Alternative Flow - Manglende rolle</text><g class="message" data-entity-1="part1" data-entity-2="part2" id="msg5"><polygon fill="#181818" points="279.166,391.6563,289.166,395.6563,279.166,399.6563,283.166,395.6563" style="stroke:#181818;stroke-width:1;"/><line style="stroke:#181818;stroke-width:1;" x1="42.313" x2="285.166" y1="395.6563" y2="395.6563"/><text fill="#000000" font-family="sans-serif" font-size="13" lengthAdjust="spacing" textLength="224.853" x="49.313" y="390.5903">enterCredentials(email, password)</text></g><g class="message" data-entity-1="part2" data-entity-2="part1" id="msg6"><polygon fill="#181818" points="53.313,420.7891,43.313,424.7891,53.313,428.7891,49.313,424.7891" style="stroke:#181818;stroke-width:1;"/><line style="stroke:#181818;stroke-width:1;stroke-dasharray:2,2;" x1="47.313" x2="290.166" y1="424.7891" y2="424.7891"/><text fill="#000000" font-family="sans-serif" font-size="13" lengthAdjust="spacing" textLength="193.0068" x="59.313" y="419.7231">showAccessDenied(message)</text></g><rect fill="#EEEEEE" height="3" style="stroke:#EEEEEE;stroke-width:1;" width="354.145" x="0" y="453.3555"/><line style="stroke:#000000;stroke-width:1;" x1="0" x2="354.145" y1="453.3555" y2="453.3555"/><line style="stroke:#000000;stroke-width:1;" x1="0" x2="354.145" y1="456.3555" y2="456.3555"/><rect fill="#EEEEEE" height="23.1328" style="stroke:#000000;stroke-width:2;" width="228.8364" x="62.6543" y="442.7891"/><text fill="#000000" font-family="sans-serif" font-size="13" font-weight="700" lengthAdjust="spacing" textLength="210.3105" x="68.6543" y="458.856">Alternative Flow - Konto l&#229;st</text><g class="message" data-entity-1="part1" data-entity-2="part2" id="msg7"><polygon fill="#181818" points="279.166,493.0547,289.166,497.0547,279.166,501.0547,283.166,497.0547" style="stroke:#181818;stroke-width:1;"/><line style="stroke:#181818;stroke-width:1;" x1="42.313" x2="285.166" y1="497.0547" y2="497.0547"/><text fill="#000000" font-family="sans-serif" font-size="13" lengthAdjust="spacing" textLength="224.853" x="49.313" y="491.9888">enterCredentials(email, password)</text></g><g class="message" data-entity-1="part2" data-entity-2="part1" id="msg8"><polygon fill="#181818" points="53.313,522.1875,43.313,526.1875,53.313,530.1875,49.313,526.1875" style="stroke:#181818;stroke-width:1;"/><line style="stroke:#181818;stroke-width:1;stroke-dasharray:2,2;" x1="47.313" x2="290.166" y1="526.1875" y2="526.1875"/><text fill="#000000" font-family="sans-serif" font-size="13" lengthAdjust="spacing" textLength="215.7505" x="59.313" y="521.1216">showLoginError(lockoutMessage)</text></g><?plantuml-src lP71IWD138RlynIXforOq6jXXTAgY1QBgzxZJ5Y3iyaoaxRqWNmINypfKkr9FDLB227vy-MFiKM2fbd019xdvnTmhosm1AYInaYlc2cHZPr3RvfWHIchO2JNOpBstACOZ5vkRnuUeTbbesu4c0-fStKDIsI1PkqzvLBt99XOeQwT-n63oULX0gP0OfJcYK9966Ekg4EEPz1ZpbjDOUmEhPCoTPIOWk26MpHwqiOAt0fRgiO3mYmMIK7Z3S5rrEt-rdON0xS4_hZf553vJRV5KfQhb3HLj8_BuaI1-vLjYT96aa0m_E1KMBFX9GiIfb1rVp3TgPX2_Fp8zWysHVNlkhPlexu0?></g></svg>